<?xml version="1.0" standalone="no"?>
<!DOCTYPE svg PUBLIC "-//W3C//DTD SVG 1.1//EN" "http://www.w3.org/Graphics/SVG/1.1/DTD/svg11.dtd" >
<svg>
<metadata>
Created by FontForge 20110222 at Wed Jun  4 16:09:10 2014
 By deploy user
Copyright (c) 1988, 1990, 1993, 2003 Linotype Library GmbH, www.linotype.com. All rights reserved. Copyright (c) 1988, 1990, 1993 Adobe Systems Incorporated. All Rights Reserved.
</metadata>
<defs>
<font id="HelveticaNeueLTPro-HvExO" horiz-adv-x="814" >
  <font-face 
    font-family="HelveticaNeueLT Pro 63 MdEx"
    font-weight="750"
    font-style="italic"
    font-stretch="normal"
    units-per-em="1000"
    panose-1="2 11 9 7 4 5 2 3 2 4"
    ascent="714"
    descent="-286"
    x-height="542"
    cap-height="714"
    bbox="-203 -235 1333 1007"
    underline-thickness="50"
    underline-position="-50"
    slope="-12"
    unicode-range="U+000D-FB02"
  />
<missing-glyph horiz-adv-x="512" 
d="M222 117h56v67h-56v-67zM225 234h46q0 52 6 72q6 19 43 52q37 34 50 60t13 60q0 59 -35 95t-89 36q-56 0 -92 -34t-43 -103l50 -8q11 95 82 95q31 0 53.5 -24.5t22.5 -60.5q0 -20 -9.5 -37t-40.5 -46q-31 -31 -46 -59q-13 -25 -13 -81zM462 50h-412v617h412v-617z
M512 718h-512v-718h512v718z" />
    <glyph glyph-name="IJ" unicode="IJ" horiz-adv-x="1203" 
d="M75 0l148 714h238l-148 -714h-238zM469 256l6 30h238q-19 -80 -7 -117t72 -37t86.5 31.5t39.5 98.5l94 452h238l-97 -466q-10 -46 -24 -82t-42 -73t-67.5 -61t-101.5 -39t-142 -15q-47 0 -84.5 3.5t-73.5 12t-60.5 22.5t-45.5 35t-28.5 50t-10 67.5t9.5 87.5z" />
    <glyph glyph-name="ij" unicode="ij" horiz-adv-x="690" 
d="M271 -193l31 145h25q54 0 69.5 12t25.5 58l108 520h212l-111 -535q-24 -118 -76 -160.5t-179 -42.5q-21 0 -105 3zM60 0l112 542h212l-112 -542h-212zM543 604l27 128h212l-27 -128h-212zM185 604l27 128h212l-27 -128h-212z" />
    <glyph glyph-name="napostrophe" unicode="&#x22;n" horiz-adv-x="822" 
d="M100 0l112 542h206l-16 -78h2q95 92 247 92q104 0 156 -50.5t33 -148.5l-74 -357h-212l60 293q22 103 -88 103q-60 0 -102.5 -33t-56.5 -97l-55 -266h-212zM140 714l22 108h208l-16 -76q-6 -30 -24 -54q-16 -24 -52 -40q-34 -15 -114 -15l9 45q55 5 66 32h-99z" />
    <glyph glyph-name="fi" unicode="fi" horiz-adv-x="796" 
d="M83 402l29 140h111l10 46q12 55 34 86t77 50.5t149 19.5q59 0 123 -8l-25 -120h-95q-28 0 -38.5 -8t-15.5 -33l-7 -33h140l-29 -140h-140l-83 -402h-212l83 402h-111zM524 0l112 542h212l-112 -542h-212zM649 604l27 128h212l-27 -128h-212z" />
    <glyph glyph-name="fl" unicode="fl" horiz-adv-x="796" 
d="M83 402l29 140h111l10 46q12 55 34 86t77 50.5t149 19.5q59 0 123 -8l-25 -120h-95q-28 0 -38.5 -8t-15.5 -33l-7 -33h140l-29 -140h-140l-83 -402h-212l83 402h-111zM524 0l152 732h212l-152 -732h-212z" />
    <glyph glyph-name=".notdef" horiz-adv-x="512" 
d="M222 117h56v67h-56v-67zM225 234h46q0 52 6 72q6 19 43 52q37 34 50 60t13 60q0 59 -35 95t-89 36q-56 0 -92 -34t-43 -103l50 -8q11 95 82 95q31 0 53.5 -24.5t22.5 -60.5q0 -20 -9.5 -37t-40.5 -46q-31 -31 -46 -59q-13 -25 -13 -81zM462 50h-412v617h412v-617z
M512 718h-512v-718h512v718z" />
    <glyph glyph-name=".null" horiz-adv-x="500" 
 />
    <glyph glyph-name=".null" horiz-adv-x="500" 
 />
    <glyph glyph-name="nonmarkingreturn" horiz-adv-x="333" 
 />
    <glyph glyph-name="CR" unicode="&#xd;" horiz-adv-x="0" 
 />
    <glyph glyph-name="space" unicode=" " horiz-adv-x="388" 
 />
    <glyph glyph-name="exclam" unicode="!" horiz-adv-x="388" 
d="M160 253l67 461h230l-125 -461h-172zM82 0l41 198h224l-41 -198h-224z" />
    <glyph glyph-name="quotedbl" unicode="&#x22;" horiz-adv-x="667" 
d="M443 320l82 394h148l-82 -394h-148zM208 320l82 394h148l-82 -394h-148z" />
    <glyph glyph-name="numbersign" unicode="#" horiz-adv-x="888" 
d="M225 0l59 173h-82l25 116h98l41 116h-82l24 116h98l60 173h120l-60 -173h101l60 173h120l-60 -173h82l-24 -116h-98l-41 -116h82l-25 -116h-98l-59 -173h-120l59 173h-101l-59 -173h-120zM546 289l41 116h-101l-41 -116h101z" />
    <glyph glyph-name="dollar" unicode="$" horiz-adv-x="888" 
d="M496 447l26 121q-15 0 -31.5 -2t-38 -8t-37 -19.5t-19.5 -33.5q-8 -38 36 -46zM526 264l-27 -132q48 0 83.5 15.5t42.5 50.5q6 32 -14.5 44.5t-82.5 21.5h-2zM394 -105l18 89q-86 1 -147.5 12t-108.5 36.5t-67 71t-11 110.5h270q-4 -36 16 -56t79 -26l29 142l-116 17
q-134 20 -180.5 66.5t-28.5 131.5q11 54 45 95t76.5 64t96.5 37t97.5 18.5t88.5 4.5l18 89h56l-18 -89q172 -9 250 -61t66 -160h-264q7 67 -81 81l-27 -129l171 -27q106 -16 150 -61t27 -134q-11 -53 -40 -93.5t-69.5 -65t-81.5 -40.5t-90.5 -23t-81.5 -9t-68 -2l-18 -89
h-56z" />
    <glyph glyph-name="percent" unicode="%" horiz-adv-x="1074" 
d="M281 516q-20 -96 58 -96t98 96t-58 96t-98 -96zM250 -16l606 724h112l-606 -724h-112zM780 176q-20 -96 58 -96t98 96t-58 96t-98 -96zM141 516q19 98 87.5 145t170.5 47t150 -47t28 -145q-41 -192 -258 -192q-102 0 -150.5 47t-27.5 145zM640 176q19 98 87.5 145
t170.5 47t150 -47t28 -145q-41 -192 -258 -192q-102 0 -150.5 47t-27.5 145z" />
    <glyph glyph-name="ampersand" unicode="&#x26;" horiz-adv-x="981" 
d="M571 157l-153 172q-37 -11 -64 -40.5t-34 -58.5q-10 -46 20.5 -79t97.5 -33q77 0 133 39zM994 0h-286l-52 59q-140 -81 -307 -81q-155 0 -219 65.5t-44 163.5q35 165 248 212q-17 19 -26.5 32t-17 40t-1.5 55q17 86 102 130.5t202 44.5q129 0 191 -43t45 -123
q-25 -116 -191 -159l112 -126q47 29 141 128l97 -79q-74 -88 -152 -147zM503 554q-6 -29 43 -78q86 30 96 76q5 24 -10 38.5t-45 14.5q-74 0 -84 -51z" />
    <glyph glyph-name="quotesingle" unicode="'" horiz-adv-x="388" 
d="M186 320l82 394h148l-82 -394h-148z" />
    <glyph glyph-name="parenleft" unicode="(" horiz-adv-x="481" 
d="M377 -190h-146q-76 91 -100 217.5t3 234.5q26 120 98.5 240.5t186.5 211.5h146q-167 -198 -219 -452q-53 -256 31 -452z" />
    <glyph glyph-name="parenright" unicode=")" horiz-adv-x="481" 
d="M170 -190h-146q167 198 219 452q53 256 -31 452h146q76 -91 100 -217.5t-3 -234.5q-26 -120 -98.5 -240.5t-186.5 -211.5z" />
    <glyph glyph-name="asterisk" unicode="*" horiz-adv-x="464" 
d="M127 364l114 108l-125 43l62 112l117 -53l25 140h120l-33 -140l139 53l16 -112l-143 -43l68 -108l-111 -72l-60 114l-108 -114z" />
    <glyph glyph-name="plus" unicode="+" horiz-adv-x="600" 
d="M297 323l38 183h140l-38 -183h183l-29 -140h-183l-38 -183h-140l38 183h-183l29 140h183z" />
    <glyph glyph-name="comma" unicode="," horiz-adv-x="388" 
d="M82 0l41 198h224l-27 -127q-50 -245 -279 -267l17 82q51 9 81 41.5t42 72.5h-99z" />
    <glyph glyph-name="hyphen" unicode="-" horiz-adv-x="481" 
d="M105 213l32 154h359l-32 -154h-359z" />
    <glyph glyph-name="period" unicode="." horiz-adv-x="388" 
d="M82 0l41 198h224l-41 -198h-224z" />
    <glyph glyph-name="slash" unicode="/" horiz-adv-x="444" 
d="M-7 -22l445 758h162l-446 -758h-161z" />
    <glyph glyph-name="zero" unicode="0" horiz-adv-x="888" 
d="M591 708q88 0 154 -20t104 -54t60 -80.5t22 -100t-10 -110.5q-16 -73 -50 -134.5t-90.5 -113.5t-143.5 -81.5t-197 -29.5q-88 0 -154.5 19.5t-104 53.5t-60 79.5t-22.5 98t10 108.5q16 76 50.5 139t91 115t143.5 81.5t197 29.5zM559 554q-33 0 -63.5 -9.5t-62.5 -31.5
t-57 -65.5t-37 -104.5q-23 -111 19 -158t114 -47q175 0 219 205q10 64 5 105t-28.5 64.5t-49.5 32.5t-59 9z" />
    <glyph glyph-name="one" unicode="1" horiz-adv-x="611" 
d="M263 0l86 416h-212l31 148h34q87 0 145.5 25t103.5 103h173l-143 -692h-218z" />
    <glyph glyph-name="two" unicode="2" horiz-adv-x="888" 
d="M860 154l-32 -154h-797q16 67 45 121t64 91.5t83 67t96 48t108 33.5l176 47q77 20 87 70q7 34 -22.5 54.5t-94.5 21.5q-67 0 -115.5 -28t-65.5 -85h-246q73 267 460 267q178 0 265.5 -59t63.5 -174q-13 -62 -56 -106t-100 -66t-126.5 -39.5t-131.5 -28.5t-119 -31.5
t-85 -49.5h543z" />
    <glyph glyph-name="three" unicode="3" horiz-adv-x="888" 
d="M381 296l29 140h146q57 0 86 13.5t37 50.5q8 38 -23 53t-93 15t-97.5 -12.5t-56.5 -52.5h-246q19 61 63.5 103.5t107.5 63.5t127.5 29.5t143.5 8.5q187 0 265.5 -49.5t57.5 -144.5q-11 -57 -56 -95t-91 -40v-2q54 -10 89 -51.5t21 -112.5q-24 -113 -139 -171t-307 -58
q-113 0 -187.5 16t-114 49.5t-51.5 77.5t-3 107h238q-5 -46 29 -71t113 -25q67 0 114.5 20t56.5 62q8 39 -22 57.5t-107 18.5h-130z" />
    <glyph glyph-name="four" unicode="4" horiz-adv-x="888" 
d="M514 0l24 116h-474l32 156l479 420h288l-89 -428h128l-30 -148h-128l-24 -116h-206zM568 264l57 274l-313 -274h256z" />
    <glyph glyph-name="five" unicode="5" horiz-adv-x="888" 
d="M134 302l149 390h656l-30 -148h-503l-41 -105q91 33 221 33q161 0 243 -59.5t59 -174.5q-25 -119 -140 -186.5t-312 -67.5q-138 0 -219.5 28.5t-111 78.5t-22.5 128h246q0 -81 136 -81q84 0 129.5 26.5t55.5 71.5q9 43 -25.5 72.5t-115.5 29.5q-92 0 -148 -36h-227z" />
    <glyph glyph-name="six" unicode="6" horiz-adv-x="888" 
d="M585 452q53 0 98 -5.5t89 -21t72 -40t40.5 -67t0.5 -97.5q-22 -110 -130 -173.5t-293 -63.5q-53 0 -96.5 4.5t-85 16t-71 30t-54.5 46.5t-35 66t-12.5 88.5t12.5 113.5q38 184 165 271.5t317 87.5q69 0 126 -9.5t106.5 -32t76 -65.5t22.5 -104h-234q-6 63 -122 63
q-99 0 -146 -42.5t-71 -118.5q94 53 225 53zM514 312q-153 0 -169 -94q-7 -36 25 -61t108 -25q82 0 122 24.5t47 61.5q9 43 -20.5 68.5t-112.5 25.5z" />
    <glyph glyph-name="seven" unicode="7" horiz-adv-x="833" 
d="M136 544l30 148h787l-39 -190q-97 -71 -160 -121t-131 -114t-114.5 -129.5t-76.5 -137.5h-300q37 113 129.5 210.5t246.5 210.5l169 123h-541z" />
    <glyph glyph-name="eight" unicode="8" horiz-adv-x="888" 
d="M532 427q71 0 109 13.5t47 50.5q8 41 -24 55t-104 14q-71 0 -109.5 -14.5t-46.5 -54.5q-9 -37 24.5 -50.5t103.5 -13.5zM506 299q-159 0 -175 -82q-5 -17 -0.5 -32t17 -27t44 -19t79.5 -7q161 0 176 85q7 36 -22 59t-119 23zM591 708q193 0 276.5 -46t62.5 -148
q-22 -105 -148 -136v-2q65 -13 94 -56t16 -106q-47 -230 -452 -230q-190 0 -285.5 54t-70.5 176q13 63 60 106t118 56v2q-114 31 -92 136q21 103 123.5 148.5t297.5 45.5z" />
    <glyph glyph-name="nine" unicode="9" horiz-adv-x="888" 
d="M98 195h234q6 -63 122 -63q98 0 146.5 43t69.5 118q-92 -53 -225 -53q-68 0 -122 9.5t-102.5 33.5t-69 71.5t-6.5 116.5q22 110 130.5 173.5t293.5 63.5q53 0 96.5 -4.5t85 -16t71 -30t54.5 -46.5t35 -66t12.5 -88.5t-12.5 -113.5q-38 -184 -165 -271.5t-317 -87.5
q-69 0 -126 9.5t-106.5 32t-76 65.5t-22.5 104zM517 380q88 0 123.5 25.5t45.5 68.5q7 36 -25 61t-108 25q-82 0 -122 -24.5t-47 -61.5q-9 -43 20.5 -68.5t112.5 -25.5z" />
    <glyph glyph-name="colon" unicode=":" horiz-adv-x="388" 
d="M153 344l41 198h224l-41 -198h-224zM82 0l41 198h224l-41 -198h-224z" />
    <glyph glyph-name="semicolon" unicode=";" horiz-adv-x="388" 
d="M82 0l41 198h224l-27 -127q-50 -245 -279 -267l17 82q51 9 81 41.5t42 72.5h-99zM153 344l41 198h224l-41 -198h-224z" />
    <glyph glyph-name="semicolon" unicode="&#x37e;" horiz-adv-x="388" 
d="M82 0l41 198h224l-27 -127q-50 -245 -279 -267l17 82q51 9 81 41.5t42 72.5h-99zM153 344l41 198h224l-41 -198h-224z" />
    <glyph glyph-name="less" unicode="&#x3c;" horiz-adv-x="600" 
d="M86 192l26 122l549 210l-28 -135l-368 -136l312 -136l-28 -135z" />
    <glyph glyph-name="equal" unicode="=" horiz-adv-x="600" 
d="M108 295l29 140h506l-29 -140h-506zM61 71l29 140h506l-29 -140h-506z" />
    <glyph glyph-name="greater" unicode="&#x3e;" horiz-adv-x="600" 
d="M43 -18l28 135l368 136l-312 136l28 135l463 -210l-26 -122z" />
    <glyph glyph-name="question" unicode="?" horiz-adv-x="796" 
d="M547 253h-218q12 54 34 82.5t67 50.5l120 56q66 31 74 75q7 33 -21 54t-77 21q-77 0 -114.5 -30.5t-55.5 -90.5h-235q44 137 143 199t283 62q169 0 253 -55.5t61 -166.5q-10 -49 -42.5 -84.5t-73.5 -55t-81.5 -35t-73.5 -36t-43 -46.5zM274 0l41 198h224l-41 -198h-224z
" />
    <glyph glyph-name="at" unicode="@" horiz-adv-x="800" 
d="M380 346q-7 -36 8.5 -59.5t50.5 -23.5q46 0 81 30.5t46 75.5q8 37 -9.5 60t-54.5 23q-41 0 -77 -33t-45 -73zM642 538h95l-85 -216q-5 -10 -17 -47q-4 -22 12 -22q31 0 68 41.5t53 118.5q21 106 -40.5 166.5t-179.5 60.5q-129 0 -222.5 -79t-120.5 -205q-27 -130 40 -206
t202 -76q111 0 208 58h113q-146 -154 -357 -154q-163 0 -256 107.5t-60 270.5q34 161 172 270.5t304 109.5q68 0 128 -22t103 -61t61.5 -97.5t3.5 -127.5q-16 -81 -73 -146.5t-122.5 -97t-122.5 -31.5q-24 0 -37.5 12t-11.5 33h-4q-50 -45 -118 -45q-66 0 -102.5 49.5
t-20.5 126.5q19 93 92 163t164 70q83 0 115 -62z" />
    <glyph glyph-name="A" unicode="A" horiz-adv-x="852" 
d="M-28 0l458 714h291l159 -714h-255l-19 116h-312l-67 -116h-255zM580 264l-42 270h-2l-156 -270h200z" />
    <glyph glyph-name="B" unicode="B" horiz-adv-x="944" 
d="M426 560l-25 -121h237q36 0 57.5 17t27.5 44q6 26 -9 43t-51 17h-237zM342 154h256q38 0 64.5 19.5t34.5 54.5q8 34 -11 52.5t-58 18.5h-256zM72 0l148 714h591q49 0 84.5 -12t53 -30t26 -42.5t8 -46.5t-5.5 -45q-11 -51 -43.5 -90.5t-74.5 -53.5v-2q55 -13 78.5 -59
t8.5 -120q-6 -28 -17 -54.5t-34.5 -56.5t-55 -51.5t-82.5 -36t-114 -14.5h-571z" />
    <glyph glyph-name="C" unicode="C" horiz-adv-x="963" 
d="M729 275h264q-20 -51 -44 -91t-65.5 -80t-94.5 -66.5t-132.5 -43t-177.5 -16.5q-448 0 -370 379q37 183 169 281t359 98q70 0 124.5 -7t106 -26.5t84.5 -52t53 -86t20 -125.5h-265q-2 20 -5 34.5t-13 35.5t-25.5 34.5t-44.5 23t-68 9.5q-105 0 -164 -60.5t-79 -158.5
q-45 -219 152 -219q79 0 134 36t82 101z" />
    <glyph glyph-name="D" unicode="D" horiz-adv-x="963" 
d="M72 0l148 714h516q167 0 235 -90t31 -267q-21 -102 -64.5 -173.5t-104 -110.5t-127.5 -56t-149 -17h-485zM425 554l-82 -394h199q172 0 214 198q41 196 -151 196h-180z" />
    <glyph glyph-name="E" unicode="E" horiz-adv-x="815" 
d="M72 0l148 714h715l-32 -154h-477l-27 -129h447l-31 -148h-447l-26 -129h477l-32 -154h-715z" />
    <glyph glyph-name="F" unicode="F" horiz-adv-x="760" 
d="M72 0l148 714h681l-33 -160h-443l-26 -123h412l-32 -154h-412l-57 -277h-238z" />
    <glyph glyph-name="G" unicode="G" horiz-adv-x="1000" 
d="M601 257l31 148h384l-84 -405h-111l-14 74q-37 -35 -121 -65.5t-207 -30.5q-230 0 -319.5 95.5t-50.5 283.5q34 167 170 273t357 106q80 0 147 -12t127.5 -39t93 -79.5t27.5 -126.5h-269q-6 103 -148 103q-105 0 -171 -62.5t-88 -163.5q-21 -99 19.5 -161.5t145.5 -62.5
q165 0 227 125h-146z" />
    <glyph glyph-name="H" unicode="H" horiz-adv-x="981" 
d="M671 0l62 299h-361l-62 -299h-238l148 714h238l-53 -255h361l53 255h238l-148 -714h-238z" />
    <glyph glyph-name="I" unicode="I" horiz-adv-x="388" 
d="M75 0l148 714h238l-148 -714h-238z" />
    <glyph glyph-name="J" unicode="J" horiz-adv-x="741" 
d="M62 256l6 30h238q-19 -80 -7 -117t72 -37t86.5 31.5t39.5 98.5l94 452h238l-97 -466q-10 -46 -24 -82t-42 -73t-67.5 -61t-101.5 -39t-142 -15q-47 0 -84.5 3.5t-73.5 12t-60.5 22.5t-45.5 35t-28.5 50t-10 67.5t9.5 87.5z" />
    <glyph glyph-name="K" unicode="K" horiz-adv-x="926" 
d="M72 0l148 714h238l-58 -280l356 280h317l-381 -281l258 -433h-318l-162 285l-119 -84l-41 -201h-238z" />
    <glyph glyph-name="L" unicode="L" horiz-adv-x="760" 
d="M72 0l148 714h238l-114 -548h435l-34 -166h-673z" />
    <glyph glyph-name="M" unicode="M" horiz-adv-x="1168" 
d="M72 0l148 714h348l65 -471h2l261 471h348l-148 -714h-224l111 534h-2l-299 -534h-196l-77 534h-2l-111 -534h-224z" />
    <glyph glyph-name="N" unicode="N" horiz-adv-x="981" 
d="M72 0l148 714h274l238 -447h2l93 447h230l-148 -714h-263l-249 451h-2l-93 -451h-230z" />
    <glyph glyph-name="O" unicode="O" horiz-adv-x="1000" 
d="M109 357q78 379 544 379q56 0 104 -5.5t93.5 -18t79.5 -32.5t62 -49.5t41 -69t17 -90.5t-11 -114q-78 -379 -544 -379q-56 0 -104 5.5t-93.5 18t-79.5 32.5t-62 49.5t-41 69t-17 90.5t11 114zM361 357q-23 -109 23 -164t144 -55q100 0 168 55t91 164q23 108 -23 163.5
t-145 55.5t-167 -55.5t-91 -163.5z" />
    <glyph glyph-name="P" unicode="P" horiz-adv-x="889" 
d="M427 566l-37 -180h212q50 0 76.5 21t36.5 69q11 48 -7 69t-69 21h-212zM72 0l148 714h528q138 0 187 -64t26 -174q-21 -101 -94.5 -169.5t-206.5 -68.5h-301l-49 -238h-238z" />
    <glyph glyph-name="Q" unicode="Q" horiz-adv-x="1000" 
d="M826 -128l-120 129q-44 -10 -105 -17q-54 -6 -106 -6q-56 0 -104 5.5t-93.5 18t-79.5 32.5t-62 49.5t-41 69t-17 90.5t11 114q78 379 544 379q56 0 104 -5.5t93.5 -18t79.5 -32.5t62 -49.5t41 -69t17 -90.5t-11 -114q-39 -184 -167 -278l83 -91zM576 141l-40 43l128 117
l66 -71q41 48 57 127q23 108 -23 163.5t-145 55.5t-167 -55.5t-91 -163.5q-23 -109 23 -164t144 -55q29 0 48 3z" />
    <glyph glyph-name="R" unicode="R" horiz-adv-x="926" 
d="M425 554l-33 -156h229q88 0 106 79q7 36 -11.5 56.5t-61.5 20.5h-229zM72 0l148 714h572q238 0 198 -199q-14 -68 -54 -109t-94 -54l-1 -2q72 -26 60 -128q-9 -68 -11.5 -91.5t-4.5 -56.5t2 -47t13 -27h-261q-7 33 8 106q17 78 -1.5 105t-68.5 27h-218l-49 -238h-238z
" />
    <glyph glyph-name="S" unicode="S" horiz-adv-x="889" 
d="M940 505h-270q2 40 -28.5 61.5t-108.5 21.5q-123 0 -139 -70q-8 -35 44 -44q26 -5 303 -49q102 -19 146 -66t25 -137q-52 -244 -463 -244q-98 0 -167 10t-123.5 36t-77.5 75t-13 121h282q-4 -44 25.5 -66t116.5 -22q125 0 141 75q5 28 -16.5 41t-83.5 23l-231 36
q-196 29 -162 202q6 31 20.5 59.5t46 60t75.5 54.5t115.5 38t161.5 15q202 0 299 -54.5t82 -176.5z" />
    <glyph glyph-name="T" unicode="T" horiz-adv-x="760" 
d="M114 554l33 160h762l-33 -160h-262l-115 -554h-238l115 554h-262z" />
    <glyph glyph-name="U" unicode="U" horiz-adv-x="926" 
d="M114 252l96 462h238l-88 -423q-17 -84 14.5 -118.5t116.5 -34.5t131.5 34.5t63.5 118.5l88 423h238l-96 -462q-56 -274 -458 -274q-197 0 -285 65t-59 209z" />
    <glyph glyph-name="V" unicode="V" 
d="M281 0l-170 714h261l76 -509h2l288 509h261l-466 -714h-252z" />
    <glyph glyph-name="W" unicode="W" horiz-adv-x="1148" 
d="M214 0l-66 714h230l12 -482h2l229 482h202l29 -482h2l212 482h230l-362 -714h-235l-28 465h-2l-220 -465h-235z" />
    <glyph glyph-name="X" unicode="X" horiz-adv-x="852" 
d="M-21 0l387 371l-206 343h283l91 -192l171 192h283l-348 -343l233 -371h-295l-108 216l-196 -216h-295z" />
    <glyph glyph-name="Y" unicode="Y" 
d="M288 0l46 225l-215 489h276l97 -303l223 303h276l-419 -489l-46 -225h-238z" />
    <glyph glyph-name="Z" unicode="Z" 
d="M18 0l28 137l537 417h-419l33 160h738l-29 -140l-533 -414h440l-33 -160h-762z" />
    <glyph glyph-name="bracketleft" unicode="[" horiz-adv-x="481" 
d="M32 -190l188 904h384l-32 -154h-172l-124 -596h172l-32 -154h-384z" />
    <glyph glyph-name="backslash" unicode="\" horiz-adv-x="444" 
d="M283 -22l-130 758h156l130 -758h-156z" />
    <glyph glyph-name="bracketright" unicode="]" horiz-adv-x="481" 
d="M-14 -190l31 154h172l124 596h-172l32 154h384l-188 -904h-383z" />
    <glyph glyph-name="asciicircum" unicode="^" horiz-adv-x="600" 
d="M114 327l251 365h156l99 -365h-143l-60 237l-160 -237h-143z" />
    <glyph glyph-name="underscore" unicode="_" horiz-adv-x="500" 
d="M-25 -125l10 50h499l-10 -50h-499z" />
    <glyph glyph-name="grave" unicode="`" horiz-adv-x="278" 
d="M190 600l-120 140h258l62 -140h-200z" />
    <glyph glyph-name="a" unicode="a" 
d="M353 372h-212q16 47 44.5 81t62.5 53.5t81 31t90 15t99 3.5q80 0 136.5 -7.5t101.5 -27t63 -57t6 -92.5l-57 -274q-7 -32 -7 -55q0 -14 9 -43h-212q-3 12 -3 25q0 11 2 25q-51 -41 -115.5 -56.5t-154.5 -15.5q-132 0 -189.5 42t-40.5 127q19 90 84 129t187 48l214 14
q39 2 54 12t19 32q6 29 -23.5 43.5t-98.5 14.5q-113 0 -140 -68zM587 220l7 33q-27 -8 -84 -15l-147 -17q-62 -7 -72 -55q-7 -32 15 -49t66 -17q92 0 148 31.5t67 88.5z" />
    <glyph glyph-name="b" unicode="b" 
d="M56 0l151 730h212l-53 -257h2q75 83 219 83q145 0 213 -81t43 -203q-30 -140 -131 -217t-247 -77q-137 0 -188 86h-2l-13 -64h-206zM324 270q-15 -64 16.5 -101t105.5 -37q150 0 179 138q14 68 -17.5 103t-104.5 35q-74 0 -120 -37t-59 -101z" />
    <glyph glyph-name="c" unicode="c" 
d="M608 221h224q-50 -121 -151 -182t-274 -61q-184 0 -267.5 73t-51.5 220q29 143 145.5 218t295.5 75q161 0 244 -55t72 -178h-218q2 46 -27.5 69.5t-96.5 23.5q-76 0 -126 -39.5t-65 -113.5q-16 -74 17.5 -113.5t110.5 -39.5q126 0 168 103z" />
    <glyph glyph-name="d" unicode="d" 
d="M552 0l13 64h-2q-88 -86 -224 -86q-146 0 -216 77.5t-40 216.5q25 121 127 202.5t247 81.5t185 -83h2l53 257h212l-151 -730h-206zM602 270q13 64 -18 101t-105 37q-149 0 -178 -138q-14 -68 17 -103t104 -35t119 36.5t61 101.5z" />
    <glyph glyph-name="e" unicode="e" 
d="M318 331h314q0 50 -31.5 80.5t-102.5 30.5q-70 0 -115 -31t-65 -80zM581 161h224q-39 -77 -138.5 -130t-259.5 -53q-186 0 -268.5 73t-50.5 221q29 141 145.5 216.5t289.5 75.5q179 0 261 -81t47 -246l-4 -16h-532q-5 -121 145 -121q80 0 141 61z" />
    <glyph glyph-name="f" unicode="f" horiz-adv-x="463" 
d="M83 402l29 140h111l10 46q12 55 34 86t77 50.5t149 19.5q59 0 123 -8l-25 -120h-95q-28 0 -38.5 -8t-15.5 -33l-7 -33h140l-29 -140h-140l-83 -402h-212l83 402h-111z" />
    <glyph glyph-name="g" unicode="g" horiz-adv-x="833" 
d="M669 473l14 69h206l-102 -493q-28 -136 -124.5 -196.5t-290.5 -60.5q-85 0 -144.5 8.5t-104.5 28.5t-66 57t-18 92h234q0 -64 116 -64q88 0 129.5 32.5t57.5 108.5l8 38q-40 -34 -103 -51.5t-129 -17.5q-163 0 -227 73.5t-38 192.5q23 114 122 190t254 76q160 0 204 -83
h2zM310 287q-13 -57 19.5 -93t109.5 -36q156 0 185 127q13 60 -19.5 95.5t-111.5 35.5q-77 0 -123.5 -35.5t-59.5 -93.5z" />
    <glyph glyph-name="h" unicode="h" horiz-adv-x="778" 
d="M56 0l152 732h212l-56 -268h2q38 42 100.5 67t140.5 25q104 0 156 -50.5t33 -148.5l-74 -357h-212l60 293q22 103 -88 103q-60 0 -102.5 -33t-56.5 -97l-55 -266h-212z" />
    <glyph glyph-name="i" unicode="i" horiz-adv-x="332" 
d="M60 0l112 542h212l-112 -542h-212zM185 604l27 128h212l-27 -128h-212z" />
    <glyph glyph-name="j" unicode="j" horiz-adv-x="352" 
d="M-67 -193l31 145h25q54 0 69.5 12t25.5 58l108 520h212l-111 -535q-24 -118 -76 -160.5t-179 -42.5q-21 0 -105 3zM205 604l27 128h212l-27 -128h-212z" />
    <glyph glyph-name="k" unicode="k" horiz-adv-x="778" 
d="M56 0l152 732h212l-79 -379l251 189h287l-292 -201l204 -341h-288l-112 205l-94 -65l-29 -140h-212z" />
    <glyph glyph-name="l" unicode="l" horiz-adv-x="332" 
d="M60 0l152 732h212l-152 -732h-212z" />
    <glyph glyph-name="m" unicode="m" horiz-adv-x="1168" 
d="M56 0l112 542h206l-16 -79h2q113 93 237 93q131 0 173 -93q56 46 113.5 69.5t133.5 23.5q93 0 142 -44.5t30 -139.5l-77 -372h-212l65 316q8 39 -11.5 59.5t-62.5 20.5q-58 0 -94 -25t-45 -68l-62 -303h-212l65 316q8 39 -11.5 59.5t-62.5 20.5q-58 0 -94 -25t-45 -68
l-62 -303h-212z" />
    <glyph glyph-name="n" unicode="n" horiz-adv-x="778" 
d="M56 0l112 542h206l-16 -78h2q95 92 247 92q104 0 156 -50.5t33 -148.5l-74 -357h-212l60 293q22 103 -88 103q-60 0 -102.5 -33t-56.5 -97l-55 -266h-212z" />
    <glyph glyph-name="o" unicode="o" 
d="M495 424q-74 0 -123.5 -38.5t-64.5 -114.5t17.5 -114.5t106.5 -38.5t123.5 38.5t64.5 114.5t-17.5 114.5t-106.5 38.5zM83 271q30 144 142.5 218.5t298.5 74.5t267.5 -74.5t51.5 -218.5t-142.5 -218.5t-298.5 -74.5t-267.5 74.5t-51.5 218.5z" />
    <glyph glyph-name="p" unicode="p" 
d="M15 -196l153 738h206l-15 -72h2q88 86 224 86q146 0 216 -77.5t40 -216.5q-25 -121 -127 -202.5t-247 -81.5q-68 0 -117 19.5t-70 51.5h-2l-51 -245h-212zM324 270q-15 -64 16.5 -101t105.5 -37q150 0 179 138q14 68 -17.5 103t-104.5 35q-74 0 -120 -37t-59 -101z" />
    <glyph glyph-name="q" unicode="q" 
d="M505 -196l51 245h-2q-80 -71 -223 -71q-146 0 -210.5 79.5t-39.5 204.5q27 134 133 214t251 80q61 0 109.5 -22.5t72.5 -63.5h2l15 72h206l-153 -738h-212zM602 270q13 64 -18 101t-105 37q-149 0 -178 -138q-14 -68 17 -103t104 -35t119 36.5t61 101.5z" />
    <glyph glyph-name="r" unicode="r" horiz-adv-x="574" 
d="M60 0l112 542h209l-22 -107h2q44 55 109.5 88t136.5 33q41 0 71 -6l-41 -198q-41 18 -114 18q-174 0 -208 -160l-43 -210h-212z" />
    <glyph glyph-name="s" unicode="s" horiz-adv-x="759" 
d="M62 169h246q-3 -32 20 -46q26 -17 91 -17q97 0 107 48q5 21 -9.5 29t-55.5 14l-184 23q-92 11 -130.5 47t-24.5 104q21 105 114 149t255 44q49 0 89.5 -4t83.5 -15.5t71.5 -30.5t44.5 -52.5t11 -77.5h-238q4 32 -28 46q-25 12 -74 12q-97 0 -107 -51q-3 -14 10 -23.5
t50 -14.5l179 -20q109 -12 153.5 -51t29.5 -116q-39 -188 -386 -188q-51 0 -94 4t-90 16.5t-78 32.5t-47.5 55.5t-8.5 82.5z" />
    <glyph glyph-name="t" unicode="t" horiz-adv-x="500" 
d="M83 402l29 140h111l36 172h212l-36 -172h140l-29 -140h-140l-45 -218q-8 -35 3 -45.5t54 -10.5q18 0 76 2l-28 -132q-63 -10 -163 -10q-107 0 -144.5 32.5t-19.5 118.5l55 263h-111z" />
    <glyph glyph-name="u" unicode="u" horiz-adv-x="778" 
d="M96 197l72 345h212l-58 -280q-14 -67 7 -95.5t77 -28.5q60 0 102.5 33t56.5 97l57 274h212l-112 -542h-206l14 70h-2q-95 -92 -247 -92q-228 0 -185 219z" />
    <glyph glyph-name="v" unicode="v" horiz-adv-x="722" 
d="M240 0l-138 542h241l56 -357l204 357h241l-362 -542h-242z" />
    <glyph glyph-name="w" unicode="w" horiz-adv-x="1130" 
d="M198 0l-84 542h230l38 -356h2l197 356h192l49 -356h2l186 356h230l-308 -542h-252l-48 319h-2l-180 -319h-252z" />
    <glyph glyph-name="x" unicode="x" horiz-adv-x="778" 
d="M-6 0l308 281l-175 261h263l79 -157l143 157h263l-282 -261l191 -281h-273l-88 167l-156 -167h-273z" />
    <glyph glyph-name="y" unicode="y" horiz-adv-x="685" 
d="M24 -190l28 134h51q35 0 57.5 6.5t30.5 13.5t17 19l34 48l-149 511h230l70 -322l199 322h224l-415 -610q-31 -47 -55.5 -71t-67.5 -40.5t-106 -16.5q-68 0 -148 6z" />
    <glyph glyph-name="z" unicode="z" horiz-adv-x="667" 
d="M22 0l26 128l381 264v2h-309l31 148h596l-26 -128l-372 -266h326l-30 -148h-623z" />
    <glyph glyph-name="braceleft" unicode="{" horiz-adv-x="481" 
d="M68 195l28 134q16 0 35.5 3.5t42.5 17.5t28 38l39 188q29 138 179 138h175l-27 -128h-55q-60 0 -71 -62l-35 -169q-18 -83 -127 -92v-2q10 -1 16.5 -2t19 -3.5t19 -7t17 -12t12.5 -17.5t5.5 -25t-2.5 -34l-33 -160q-2 -14 -3 -28t11 -24t37 -10h55l-27 -128h-175
q-150 0 -121 138l37 179q6 28 -11.5 44.5t-35 20t-33.5 3.5z" />
    <glyph glyph-name="bar" unicode="|" horiz-adv-x="222" 
d="M32 -22l158 758h148l-158 -758h-148z" />
    <glyph glyph-name="braceright" unicode="}" horiz-adv-x="481" 
d="M521 329l-28 -134q-16 0 -35.5 -3.5t-42.5 -17.5t-28 -38l-39 -188q-28 -138 -179 -138h-174l26 128h55q60 0 71 62l35 169q18 83 127 92v2q-10 1 -16.5 2t-19 3.5t-19 7t-17 12t-12.5 17.5t-5.5 25t2.5 34l33 160q2 14 3 28t-11 24t-37 10h-55l27 128h175
q149 0 121 -138l-37 -179q-6 -28 11.5 -44.5t34.5 -20t34 -3.5z" />
    <glyph glyph-name="asciitilde" unicode="~" horiz-adv-x="600" 
d="M135 145l-10 126q66 86 143 86q45 0 104 -32q70 -36 95 -36q19 0 39 12.5t31.5 24t32.5 35.5l9 -126q-74 -86 -143 -86q-41 0 -95 33q-52 35 -107 35q-52 0 -99 -72z" />
    <glyph glyph-name="uni00A0" unicode="&#xa0;" horiz-adv-x="388" 
 />
    <glyph glyph-name="exclamdown" unicode="&#xa1;" horiz-adv-x="388" 
d="M43 -172l125 461h172l-67 -461h-230zM153 344l41 198h224l-41 -198h-224z" />
    <glyph glyph-name="cent" unicode="&#xa2;" horiz-adv-x="888" 
d="M454 120l63 303q-63 -8 -104 -47t-55 -105t11 -104.5t85 -46.5zM403 -128l22 108q-171 4 -246 76.5t-45 214.5q59 281 413 292l18 91h56l-18 -91q310 -8 288 -232h-218q2 41 -22 64t-78 28l-63 -303q110 11 144 101h224q-44 -117 -137.5 -177t-259.5 -64l-22 -108h-56z
" />
    <glyph glyph-name="sterling" unicode="&#xa3;" horiz-adv-x="888" 
d="M136 301l22 104h57q-14 51 -5 95q21 103 130 155.5t267 52.5q178 0 252.5 -61.5t47.5 -197.5h-246q11 47 -7 75q-19 30 -80 30q-46 0 -80.5 -21t-41.5 -53q-5 -22 1 -75h158l-22 -104h-151q-24 -85 -113 -135l2 -2q52 25 117 25q31 0 97 -12.5t101 -12.5q91 0 176 60
l30 -165q-114 -75 -248 -75q-50 0 -153.5 22.5t-140.5 22.5q-66 0 -163 -45l-56 149q50 27 80 55.5t38 69.5q6 29 7 43h-76z" />
    <glyph glyph-name="currency" unicode="&#xa4;" horiz-adv-x="888" 
d="M545 486q-58 0 -101 -38t-57 -102q-13 -64 14.5 -102t84.5 -38t101 38.5t56 101.5q12 60 -14.5 100t-83.5 40zM188 134l74 61q-32 65 -15 151q18 85 79 151l-50 60l88 73l48 -62q72 46 159 46q83 0 141 -46l72 62l58 -73l-74 -60q33 -64 15 -151q-18 -88 -79 -151l50 -61
l-88 -72l-47 63q-73 -47 -159 -47q-88 0 -141 47l-73 -63z" />
    <glyph glyph-name="yen" unicode="&#xa5;" horiz-adv-x="888" 
d="M338 0l20 97h-216l21 104h216l9 44l-16 33h-193l22 104h120l-157 310h263l100 -292l220 292h263l-284 -310h119l-22 -104h-193l-30 -33l-9 -44h216l-21 -104h-216l-20 -97h-212z" />
    <glyph glyph-name="brokenbar" unicode="&#xa6;" horiz-adv-x="222" 
d="M32 -22l61 296h148l-61 -296h-148zM128 440l62 296h148l-62 -296h-148z" />
    <glyph glyph-name="section" unicode="&#xa7;" horiz-adv-x="888" 
d="M531 31l-264 65q-93 22 -141.5 72t-31.5 131q24 112 136 158q-31 33 -18 91q7 31 27.5 61t60 60t110.5 48.5t163 18.5q73 0 130 -10.5t103 -34t68.5 -66t16.5 -102.5h-227q8 41 -19.5 57t-98.5 16q-103 0 -116 -50q-3 -15 12 -25t62 -21l217 -47q116 -26 159.5 -74.5
t27.5 -127.5q-21 -100 -127 -151q38 -41 27 -93q-19 -95 -115.5 -149t-275.5 -54q-165 0 -255.5 52t-79.5 168h227q-2 -50 35 -68t112 -18q47 0 80 13.5t38 36.5q4 18 -6 27t-37 16zM640 291l-301 81q-36 -25 -44 -55q-9 -42 53 -59l321 -86q29 26 36 56q5 23 -10 37t-55 26
z" />
    <glyph glyph-name="dieresis" unicode="&#xa8;" horiz-adv-x="278" 
d="M3 606l27 128h212l-27 -128h-212zM309 606l27 128h212l-27 -128h-212z" />
    <glyph glyph-name="copyright" unicode="&#xa9;" horiz-adv-x="800" 
d="M223 357q-25 -122 33 -195.5t162 -73.5q102 0 192 74t115 195t-34 195t-161 74q-103 0 -192.5 -73.5t-114.5 -195.5zM544 298h114q-28 -76 -86.5 -118t-127.5 -42q-93 0 -139 62.5t-26 155.5q21 96 89.5 157.5t160.5 61.5q73 0 114 -40t37 -116h-110q-2 60 -61 60
q-45 0 -77 -32t-43 -89q-12 -57 7.5 -90.5t64.5 -33.5q29 0 51.5 16.5t31.5 47.5zM95 357q32 156 166.5 267.5t291.5 111.5t244.5 -111.5t55.5 -267.5q-34 -157 -167.5 -268t-290.5 -111q-156 0 -245 111.5t-55 267.5z" />
    <glyph glyph-name="ordfeminine" unicode="&#xaa;" horiz-adv-x="529" 
d="M592 358h-151q-3 16 0 30q-70 -42 -174 -42q-96 0 -135 26.5t-26 86.5q20 101 189 108l127 6q42 3 47 23q8 32 -73 32q-66 0 -82 -36h-155q23 68 96 96q53 20 161 20q45 0 77.5 -2.5t61.5 -10.5t45.5 -21t23.5 -34t1 -50l-36 -173q-8 -33 3 -59zM452 499l3 14
q-6 -2 -26 -4t-27 -3l-81 -11q-40 -4 -46 -31q-3 -14 10.5 -23t37.5 -9q53 0 88 18.5t41 48.5z" />
    <glyph glyph-name="guillemotleft" unicode="&#xab;" horiz-adv-x="648" 
d="M385 202l37 176l238 152l-31 -148l-141 -92l103 -92l-31 -148zM125 202l37 176l238 152l-31 -148l-141 -92l103 -92l-31 -148z" />
    <glyph glyph-name="logicalnot" unicode="&#xac;" horiz-adv-x="600" 
d="M435 108l39 187h-366l29 140h506l-68 -327h-140z" />
    <glyph glyph-name="uni00AD" unicode="&#xad;" horiz-adv-x="481" 
d="M105 213l32 154h359l-32 -154h-359z" />
    <glyph glyph-name="registered" unicode="&#xae;" horiz-adv-x="800" 
d="M95 357q32 156 166.5 267.5t291.5 111.5t244.5 -111.5t55.5 -267.5q-34 -157 -167.5 -268t-290.5 -111q-156 0 -245 111.5t-55 267.5zM223 357q-25 -122 33 -195.5t162 -73.5q102 0 192 74t115 195t-34 195t-161 74q-103 0 -192.5 -73.5t-114.5 -195.5zM290 177l81 386
h134q86 0 124 -28t24 -97q-11 -51 -39 -75.5t-61 -29.5l56 -156h-107l-52 146h-33l-31 -146h-96zM432 397h50q58 0 68 46q4 23 -8 34.5t-41 11.5h-50z" />
    <glyph glyph-name="macron" unicode="&#xaf;" horiz-adv-x="278" 
d="M4 612l25 116h526l-25 -116h-526z" />
    <glyph glyph-name="degree" unicode="&#xb0;" horiz-adv-x="400" 
d="M153 548q14 66 71 113t123 47t103 -47t23 -113t-70.5 -113t-122.5 -47t-103.5 47t-23.5 113zM227 548q-6 -36 13.5 -61t55.5 -25q35 0 66 25.5t37 60.5q7 35 -13 60.5t-55 25.5q-36 0 -66 -25.5t-38 -60.5z" />
    <glyph glyph-name="plusminus" unicode="&#xb1;" horiz-adv-x="600" 
d="M316 418l19 88h140l-19 -88h183l-29 -140h-183l-18 -88h-140l18 88h-183l29 140h183zM47 0l29 140h506l-29 -140h-506z" />
    <glyph glyph-name="twosuperior" unicode="&#xb2;" horiz-adv-x="577" 
d="M618 386l-22 -104h-524q22 88 86.5 135t165.5 71l114 28q50 13 56 42q10 44 -71 46q-89 0 -110 -68h-180q26 94 110 137q71 35 202 35q127 0 185 -37t43 -114q-11 -54 -61 -85t-120 -42q-183 -28 -213 -42v-2h339z" />
    <glyph glyph-name="threesuperior" unicode="&#xb3;" horiz-adv-x="577" 
d="M290 446l20 96h89q71 0 78 34q4 19 -17 27.5t-54 8.5q-36 0 -57.5 -7t-35.5 -31h-178q25 79 112 110q69 24 190 24q133 0 184.5 -29t37.5 -95q-8 -37 -38 -59t-70 -24l-1 -2q46 -4 72.5 -28.5t17.5 -69.5q-14 -69 -88 -100t-214 -31q-153 0 -206.5 33t-43.5 107h174
q-2 -15 21 -26q23 -10 71 -10q95 0 101 31q4 21 -16.5 31t-69.5 10h-79z" />
    <glyph glyph-name="acute" unicode="&#xb4;" horiz-adv-x="278" 
d="M138 600l120 140h258l-178 -140h-200z" />
    <glyph glyph-name="mu" unicode="&#xb5;" horiz-adv-x="778" 
d="M516 0l14 70h-2q-84 -92 -170 -92q-60 0 -86 36h-2l-43 -210h-212l153 738h212l-58 -280q-14 -67 7 -95.5t77 -28.5q60 0 102.5 33t56.5 97l57 274h212l-112 -542h-206z" />
    <glyph glyph-name="paragraph" unicode="&#xb6;" horiz-adv-x="720" 
d="M219 -174l105 504q-111 0 -162.5 48.5t-31.5 140.5q13 58 41 97.5t69.5 60t85.5 29t101 8.5h364l-185 -888h-140l162 778h-107l-162 -778h-140z" />
    <glyph glyph-name="periodcentered" unicode="&#xb7;" horiz-adv-x="388" 
d="M129 260q10 49 51.5 84t91.5 35q49 0 77 -34.5t18 -84.5q-10 -49 -52 -84t-92 -35t-77 34.5t-17 84.5z" />
    <glyph glyph-name="cedilla" unicode="&#xb8;" horiz-adv-x="278" 
d="M-51 -197l29 51q38 -14 77 -14q22 0 36.5 10t16.5 24q3 12 -7.5 18.5t-26.5 6.5q-11 0 -37 -7l-21 20l76 88h69l-39 -48q27 3 41 3q94 -2 85 -80q-18 -95 -158 -95q-82 0 -141 23z" />
    <glyph glyph-name="onesuperior" unicode="&#xb9;" horiz-adv-x="397" 
d="M219 282l50 242h-128l22 104h22q55 0 94 14.5t66 55.5h123l-87 -416h-162z" />
    <glyph glyph-name="ordmasculine" unicode="&#xba;" horiz-adv-x="529" 
d="M278 527q-17 -85 78 -85q96 0 113 85q9 42 -11 63.5t-66 21.5q-96 0 -114 -85zM110 527q39 181 302 181q127 0 186 -45.5t39 -135.5q-37 -181 -301 -181q-128 0 -186 45t-40 136z" />
    <glyph glyph-name="guillemotright" unicode="&#xbb;" horiz-adv-x="648" 
d="M108 50l31 148l141 92l-103 92l31 148l174 -152l-37 -176zM368 50l31 148l141 92l-103 92l31 148l174 -152l-37 -176z" />
    <glyph glyph-name="onequarter" unicode="&#xbc;" horiz-adv-x="1333" 
d="M983 0l11 55h-302l22 108l308 253h201l-50 -239h70l-25 -122h-70l-11 -55h-154zM1019 177l33 155l-194 -155h161zM289 -16l606 724h112l-606 -724h-112zM249 282l50 242h-128l22 104h22q55 0 94 14.5t66 55.5h123l-87 -416h-162z" />
    <glyph glyph-name="onehalf" unicode="&#xbd;" horiz-adv-x="1333" 
d="M274 -16l606 724h112l-606 -724h-112zM249 282l50 242h-128l22 104h22q55 0 94 14.5t66 55.5h123l-87 -416h-162zM1235 104l-21 -104h-524q22 88 86 135t165 71l114 28q22 5 37.5 16.5t18.5 25.5q10 44 -71 46q-89 0 -110 -68h-180q27 96 111 137q69 35 201 35
q127 0 185.5 -37t43.5 -114q-11 -54 -61.5 -85t-120.5 -42q-183 -28 -212 -42l-1 -2h339z" />
    <glyph glyph-name="threequarters" unicode="&#xbe;" horiz-adv-x="1333" 
d="M1073 0l11 55h-302l22 108l308 253h201l-50 -239h70l-25 -122h-70l-11 -55h-154zM1109 177l33 155l-194 -155h161zM310 446l20 96h89q71 0 78 34q4 19 -17 27.5t-54 8.5q-36 0 -57.5 -7t-35.5 -31h-178q25 79 112 110q69 24 190 24q133 0 184.5 -29t37.5 -95
q-8 -37 -38 -59t-70 -24l-1 -2q46 -4 72.5 -28.5t17.5 -69.5q-14 -69 -88 -100t-214 -31q-153 0 -206.5 33t-43.5 107h174q-2 -15 21 -26q23 -10 71 -10q95 0 101 31q4 21 -16.5 31t-69.5 10h-79zM419 -16l606 724h112l-606 -724h-112z" />
    <glyph glyph-name="questiondown" unicode="&#xbf;" horiz-adv-x="796" 
d="M361 289h218q-12 -54 -34.5 -83.5t-66.5 -49.5l-121 -56q-65 -30 -73 -75q-8 -33 21 -54t77 -21q77 0 114 30.5t55 90.5h235q-42 -136 -142 -198.5t-283 -62.5q-170 0 -253.5 55.5t-60.5 166.5q12 60 59 101t97 58t97.5 42t60.5 56zM369 344l41 198h224l-41 -198h-224z
" />
    <glyph glyph-name="Agrave" unicode="&#xc0;" horiz-adv-x="852" 
d="M-28 0l458 714h291l159 -714h-255l-19 116h-312l-67 -116h-255zM580 264l-42 270h-2l-156 -270h200zM512 780l-120 140h258l62 -140h-200z" />
    <glyph glyph-name="Aacute" unicode="&#xc1;" horiz-adv-x="852" 
d="M-28 0l458 714h291l159 -714h-255l-19 116h-312l-67 -116h-255zM580 264l-42 270h-2l-156 -270h200zM454 780l120 140h258l-178 -140h-200z" />
    <glyph glyph-name="Acircumflex" unicode="&#xc2;" horiz-adv-x="852" 
d="M-28 0l458 714h291l159 -714h-255l-19 116h-312l-67 -116h-255zM580 264l-42 270h-2l-156 -270h200zM297 780l177 140h296l120 -140h-234l-55 77l-87 -77h-217z" />
    <glyph glyph-name="Atilde" unicode="&#xc3;" horiz-adv-x="852" 
d="M-28 0l458 714h291l159 -714h-255l-19 116h-312l-67 -116h-255zM580 264l-42 270h-2l-156 -270h200zM406 783h-95q64 145 191 145q29 0 69 -9l133 -29q18 -5 27 -5q10 0 17.5 2.5t14.5 10t9.5 10.5t9.5 12h93q-22 -65 -64.5 -106.5t-107.5 -41.5q-45 0 -186 35
q-55 12 -57 12q-37 0 -54 -36z" />
    <glyph glyph-name="Adieresis" unicode="&#xc4;" horiz-adv-x="852" 
d="M-28 0l458 714h291l159 -714h-255l-19 116h-312l-67 -116h-255zM580 264l-42 270h-2l-156 -270h200zM329 786l27 128h212l-27 -128h-212zM635 786l27 128h212l-27 -128h-212z" />
    <glyph glyph-name="Aring" unicode="&#xc5;" horiz-adv-x="852" 
d="M-28 0l458 714h291l159 -714h-255l-19 116h-312l-67 -116h-255zM580 264l-42 270h-2l-156 -270h200zM467 875q12 54 58.5 93t101.5 39q54 0 85 -39t19 -93q-12 -55 -58 -93.5t-101 -38.5q-54 0 -85.5 39t-19.5 93zM541 875q-5 -24 8.5 -41t37.5 -17t44.5 17t25.5 41
t-8.5 41t-37.5 17t-44.5 -17t-25.5 -41z" />
    <glyph glyph-name="AE" unicode="&#xc6;" horiz-adv-x="1148" 
d="M-17 0l507 714h774l-32 -154h-372l-27 -129h358l-31 -148h-358l-26 -129h376l-32 -154h-588l28 135h-237l-88 -135h-252zM590 283l59 283h-46l-184 -283h171z" />
    <glyph glyph-name="Ccedilla" unicode="&#xc7;" horiz-adv-x="963" 
d="M295 -197l29 51q38 -14 77 -14q22 0 36.5 10t16.5 24q3 12 -7.5 18.5t-26.5 6.5q-11 0 -37 -7l-21 20l58 68q-179 10 -259 95q-90 97 -52 282q37 183 169 281t359 98q70 0 124.5 -7t106 -26.5t84.5 -52t53 -86t20 -125.5h-265q-2 20 -5 34.5t-13 35.5t-25.5 34.5
t-44.5 23t-68 9.5q-105 0 -164 -60.5t-79 -158.5q-45 -219 152 -219q79 0 134 36t82 101h264q-40 -101 -108 -169.5t-192 -103.5q-84 -22 -204 -24l-21 -26q27 3 41 3q94 -2 85 -80q-18 -95 -158 -95q-82 0 -141 23z" />
    <glyph glyph-name="Egrave" unicode="&#xc8;" horiz-adv-x="815" 
d="M72 0l148 714h715l-32 -154h-477l-27 -129h447l-31 -148h-447l-26 -129h477l-32 -154h-715zM530 780l-120 140h258l62 -140h-200z" />
    <glyph glyph-name="Eacute" unicode="&#xc9;" horiz-adv-x="815" 
d="M72 0l148 714h715l-32 -154h-477l-27 -129h447l-31 -148h-447l-26 -129h477l-32 -154h-715zM493 780l120 140h258l-178 -140h-200z" />
    <glyph glyph-name="Ecircumflex" unicode="&#xca;" horiz-adv-x="815" 
d="M72 0l148 714h715l-32 -154h-477l-27 -129h447l-31 -148h-447l-26 -129h477l-32 -154h-715zM290 780l177 140h296l120 -140h-234l-55 77l-87 -77h-217z" />
    <glyph glyph-name="Edieresis" unicode="&#xcb;" horiz-adv-x="815" 
d="M72 0l148 714h715l-32 -154h-477l-27 -129h447l-31 -148h-447l-26 -129h477l-32 -154h-715zM318 786l27 128h212l-27 -128h-212zM624 786l27 128h212l-27 -128h-212z" />
    <glyph glyph-name="Igrave" unicode="&#xcc;" horiz-adv-x="388" 
d="M75 0l148 714h238l-148 -714h-238zM259 780l-120 140h258l62 -140h-200z" />
    <glyph glyph-name="Iacute" unicode="&#xcd;" horiz-adv-x="388" 
d="M75 0l148 714h238l-148 -714h-238zM232 780l120 140h258l-178 -140h-200z" />
    <glyph glyph-name="Icircumflex" unicode="&#xce;" horiz-adv-x="388" 
d="M75 0l148 714h238l-148 -714h-238zM59 780l177 140h296l120 -140h-234l-55 77l-87 -77h-217z" />
    <glyph glyph-name="Idieresis" unicode="&#xcf;" horiz-adv-x="388" 
d="M75 0l148 714h238l-148 -714h-238zM87 786l27 128h212l-27 -128h-212zM393 786l27 128h212l-27 -128h-212z" />
    <glyph glyph-name="Eth" unicode="&#xd0;" horiz-adv-x="963" 
d="M72 0l60 291h-72l28 134h72l60 289h516q167 0 235 -90t31 -267q-21 -102 -64.5 -173.5t-104 -110.5t-127.5 -56t-149 -17h-485zM554 425l-28 -134h-156l-27 -131h199q172 0 214 198q41 196 -151 196h-180l-27 -129h156z" />
    <glyph glyph-name="Ntilde" unicode="&#xd1;" horiz-adv-x="981" 
d="M72 0l148 714h274l238 -447h2l93 447h230l-148 -714h-263l-249 451h-2l-93 -451h-230zM473 783h-95q64 145 191 145q29 0 69 -9l133 -29q18 -5 27 -5q10 0 17.5 2.5t14.5 10t9.5 10.5t9.5 12h93q-22 -65 -64.5 -106.5t-107.5 -41.5q-45 0 -186 35q-55 12 -57 12
q-37 0 -54 -36z" />
    <glyph glyph-name="Ograve" unicode="&#xd2;" horiz-adv-x="1000" 
d="M109 357q78 379 544 379q56 0 104 -5.5t93.5 -18t79.5 -32.5t62 -49.5t41 -69t17 -90.5t-11 -114q-78 -379 -544 -379q-56 0 -104 5.5t-93.5 18t-79.5 32.5t-62 49.5t-41 69t-17 90.5t11 114zM361 357q-23 -109 23 -164t144 -55q100 0 168 55t91 164q23 108 -23 163.5
t-145 55.5t-167 -55.5t-91 -163.5zM567 780l-120 140h258l62 -140h-200z" />
    <glyph glyph-name="Oacute" unicode="&#xd3;" horiz-adv-x="1000" 
d="M109 357q78 379 544 379q56 0 104 -5.5t93.5 -18t79.5 -32.5t62 -49.5t41 -69t17 -90.5t-11 -114q-78 -379 -544 -379q-56 0 -104 5.5t-93.5 18t-79.5 32.5t-62 49.5t-41 69t-17 90.5t11 114zM361 357q-23 -109 23 -164t144 -55q100 0 168 55t91 164q23 108 -23 163.5
t-145 55.5t-167 -55.5t-91 -163.5zM554 780l120 140h258l-178 -140h-200z" />
    <glyph glyph-name="Ocircumflex" unicode="&#xd4;" horiz-adv-x="1000" 
d="M109 357q78 379 544 379q56 0 104 -5.5t93.5 -18t79.5 -32.5t62 -49.5t41 -69t17 -90.5t-11 -114q-78 -379 -544 -379q-56 0 -104 5.5t-93.5 18t-79.5 32.5t-62 49.5t-41 69t-17 90.5t11 114zM361 357q-23 -109 23 -164t144 -55q100 0 168 55t91 164q23 108 -23 163.5
t-145 55.5t-167 -55.5t-91 -163.5zM373 780l177 140h296l120 -140h-234l-55 77l-87 -77h-217z" />
    <glyph glyph-name="Otilde" unicode="&#xd5;" horiz-adv-x="1000" 
d="M109 357q78 379 544 379q56 0 104 -5.5t93.5 -18t79.5 -32.5t62 -49.5t41 -69t17 -90.5t-11 -114q-78 -379 -544 -379q-56 0 -104 5.5t-93.5 18t-79.5 32.5t-62 49.5t-41 69t-17 90.5t11 114zM361 357q-23 -109 23 -164t144 -55q100 0 168 55t91 164q23 108 -23 163.5
t-145 55.5t-167 -55.5t-91 -163.5zM491 783h-95q64 145 191 145q29 0 69 -9l133 -29q18 -5 27 -5q10 0 17.5 2.5t14.5 10t9.5 10.5t9.5 12h93q-22 -65 -64.5 -106.5t-107.5 -41.5q-45 0 -186 35q-55 12 -57 12q-37 0 -54 -36z" />
    <glyph glyph-name="Odieresis" unicode="&#xd6;" horiz-adv-x="1000" 
d="M109 357q78 379 544 379q56 0 104 -5.5t93.5 -18t79.5 -32.5t62 -49.5t41 -69t17 -90.5t-11 -114q-78 -379 -544 -379q-56 0 -104 5.5t-93.5 18t-79.5 32.5t-62 49.5t-41 69t-17 90.5t11 114zM361 357q-23 -109 23 -164t144 -55q100 0 168 55t91 164q23 108 -23 163.5
t-145 55.5t-167 -55.5t-91 -163.5zM403 786l27 128h212l-27 -128h-212zM709 786l27 128h212l-27 -128h-212z" />
    <glyph glyph-name="multiply" unicode="&#xd7;" horiz-adv-x="600" 
d="M253 253l-113 143l119 99l114 -143l172 143l79 -99l-173 -143l113 -143l-119 -99l-113 143l-173 -143l-79 99z" />
    <glyph glyph-name="Oslash" unicode="&#xd8;" horiz-adv-x="1000" 
d="M358 250l399 277q-43 49 -138 49q-99 0 -167 -55.5t-91 -163.5q-13 -64 -3 -107zM789 464l-399 -277q43 -49 138 -49q100 0 168 55t91 164q12 65 2 107zM36 26l106 74q-67 92 -33 257q78 379 544 379q203 0 301 -72l122 85l36 -61l-107 -74q68 -94 34 -257
q-78 -379 -544 -379q-202 0 -301 72l-123 -85z" />
    <glyph glyph-name="Ugrave" unicode="&#xd9;" horiz-adv-x="926" 
d="M114 252l96 462h238l-88 -423q-17 -84 14.5 -118.5t116.5 -34.5t131.5 34.5t63.5 118.5l88 423h238l-96 -462q-56 -274 -458 -274q-197 0 -285 65t-59 209zM541 780l-120 140h258l62 -140h-200z" />
    <glyph glyph-name="Uacute" unicode="&#xda;" horiz-adv-x="926" 
d="M114 252l96 462h238l-88 -423q-17 -84 14.5 -118.5t116.5 -34.5t131.5 34.5t63.5 118.5l88 423h238l-96 -462q-56 -274 -458 -274q-197 0 -285 65t-59 209zM518 780l120 140h258l-178 -140h-200z" />
    <glyph glyph-name="Ucircumflex" unicode="&#xdb;" horiz-adv-x="926" 
d="M114 252l96 462h238l-88 -423q-17 -84 14.5 -118.5t116.5 -34.5t131.5 34.5t63.5 118.5l88 423h238l-96 -462q-56 -274 -458 -274q-197 0 -285 65t-59 209zM334 780l177 140h296l120 -140h-234l-55 77l-87 -77h-217z" />
    <glyph glyph-name="Udieresis" unicode="&#xdc;" horiz-adv-x="926" 
d="M114 252l96 462h238l-88 -423q-17 -84 14.5 -118.5t116.5 -34.5t131.5 34.5t63.5 118.5l88 423h238l-96 -462q-56 -274 -458 -274q-197 0 -285 65t-59 209zM358 786l27 128h212l-27 -128h-212zM664 786l27 128h212l-27 -128h-212z" />
    <glyph glyph-name="Yacute" unicode="&#xdd;" 
d="M288 0l46 225l-215 489h276l97 -303l223 303h276l-419 -489l-46 -225h-238zM482 780l120 140h258l-178 -140h-200z" />
    <glyph glyph-name="Thorn" unicode="&#xde;" horiz-adv-x="889" 
d="M406 466l-37 -180h212q50 0 77 21t37 69t-8.5 69t-68.5 21h-212zM72 0l148 714h238l-21 -100h290q261 0 214 -238q-20 -101 -95 -169.5t-207 -68.5h-301l-28 -138h-238z" />
    <glyph glyph-name="germandbls" unicode="&#xdf;" horiz-adv-x="833" 
d="M63 0l101 490q12 55 37 97t71 76t121 51.5t177 17.5q163 0 239 -46.5t56 -145.5q-11 -58 -47 -89.5t-79 -38.5v-2q61 -11 90.5 -60t10.5 -134q-23 -110 -116 -169t-227 -59q-95 0 -159 19l31 148q56 -13 105 -13q126 0 148 99q6 27 -4 46t-32 27.5t-45 12t-51 3.5h-66
l25 122h51q116 0 130 63q7 34 -17 51.5t-78 17.5q-84 0 -118 -33t-50 -104l-92 -447h-212z" />
    <glyph glyph-name="agrave" unicode="&#xe0;" 
d="M353 372h-212q16 47 44.5 81t62.5 53.5t81 31t90 15t99 3.5q80 0 136.5 -7.5t101.5 -27t63 -57t6 -92.5l-57 -274q-7 -32 -7 -55q0 -14 9 -43h-212q-3 12 -3 25q0 11 2 25q-51 -41 -115.5 -56.5t-154.5 -15.5q-132 0 -189.5 42t-40.5 127q19 90 84 129t187 48l214 14
q39 2 54 12t19 32q6 29 -23.5 43.5t-98.5 14.5q-113 0 -140 -68zM587 220l7 33q-27 -8 -84 -15l-147 -17q-62 -7 -72 -55q-7 -32 15 -49t66 -17q92 0 148 31.5t67 88.5zM440 600l-120 140h258l62 -140h-200z" />
    <glyph glyph-name="aacute" unicode="&#xe1;" 
d="M353 372h-212q16 47 44.5 81t62.5 53.5t81 31t90 15t99 3.5q80 0 136.5 -7.5t101.5 -27t63 -57t6 -92.5l-57 -274q-7 -32 -7 -55q0 -14 9 -43h-212q-3 12 -3 25q0 11 2 25q-51 -41 -115.5 -56.5t-154.5 -15.5q-132 0 -189.5 42t-40.5 127q19 90 84 129t187 48l214 14
q39 2 54 12t19 32q6 29 -23.5 43.5t-98.5 14.5q-113 0 -140 -68zM587 220l7 33q-27 -8 -84 -15l-147 -17q-62 -7 -72 -55q-7 -32 15 -49t66 -17q92 0 148 31.5t67 88.5zM438 600l120 140h258l-178 -140h-200z" />
    <glyph glyph-name="acircumflex" unicode="&#xe2;" 
d="M353 372h-212q16 47 44.5 81t62.5 53.5t81 31t90 15t99 3.5q80 0 136.5 -7.5t101.5 -27t63 -57t6 -92.5l-57 -274q-7 -32 -7 -55q0 -14 9 -43h-212q-3 12 -3 25q0 11 2 25q-51 -41 -115.5 -56.5t-154.5 -15.5q-132 0 -189.5 42t-40.5 127q19 90 84 129t187 48l214 14
q39 2 54 12t19 32q6 29 -23.5 43.5t-98.5 14.5q-113 0 -140 -68zM587 220l7 33q-27 -8 -84 -15l-147 -17q-62 -7 -72 -55q-7 -32 15 -49t66 -17q92 0 148 31.5t67 88.5zM248 600l177 140h296l120 -140h-234l-55 77l-87 -77h-217z" />
    <glyph glyph-name="atilde" unicode="&#xe3;" 
d="M353 372h-212q16 47 44.5 81t62.5 53.5t81 31t90 15t99 3.5q80 0 136.5 -7.5t101.5 -27t63 -57t6 -92.5l-57 -274q-7 -32 -7 -55q0 -14 9 -43h-212q-3 12 -3 25q0 11 2 25q-51 -41 -115.5 -56.5t-154.5 -15.5q-132 0 -189.5 42t-40.5 127q19 90 84 129t187 48l214 14
q39 2 54 12t19 32q6 29 -23.5 43.5t-98.5 14.5q-113 0 -140 -68zM587 220l7 33q-27 -8 -84 -15l-147 -17q-62 -7 -72 -55q-7 -32 15 -49t66 -17q92 0 148 31.5t67 88.5zM356 603h-95q64 145 191 145q29 0 69 -9l133 -29q18 -5 27 -5q10 0 17.5 2.5t14.5 10t9.5 10.5t9.5 12
h93q-22 -65 -64.5 -106.5t-107.5 -41.5q-45 0 -186 35q-55 12 -57 12q-37 0 -54 -36z" />
    <glyph glyph-name="adieresis" unicode="&#xe4;" 
d="M353 372h-212q16 47 44.5 81t62.5 53.5t81 31t90 15t99 3.5q80 0 136.5 -7.5t101.5 -27t63 -57t6 -92.5l-57 -274q-7 -32 -7 -55q0 -14 9 -43h-212q-3 12 -3 25q0 11 2 25q-51 -41 -115.5 -56.5t-154.5 -15.5q-132 0 -189.5 42t-40.5 127q19 90 84 129t187 48l214 14
q39 2 54 12t19 32q6 29 -23.5 43.5t-98.5 14.5q-113 0 -140 -68zM587 220l7 33q-27 -8 -84 -15l-147 -17q-62 -7 -72 -55q-7 -32 15 -49t66 -17q92 0 148 31.5t67 88.5zM272 606l27 128h212l-27 -128h-212zM578 606l27 128h212l-27 -128h-212z" />
    <glyph glyph-name="aring" unicode="&#xe5;" 
d="M353 372h-212q16 47 44.5 81t62.5 53.5t81 31t90 15t99 3.5q80 0 136.5 -7.5t101.5 -27t63 -57t6 -92.5l-57 -274q-7 -32 -7 -55q0 -14 9 -43h-212q-3 12 -3 25q0 11 2 25q-51 -41 -115.5 -56.5t-154.5 -15.5q-132 0 -189.5 42t-40.5 127q19 90 84 129t187 48l214 14
q39 2 54 12t19 32q6 29 -23.5 43.5t-98.5 14.5q-113 0 -140 -68zM587 220l7 33q-27 -8 -84 -15l-147 -17q-62 -7 -72 -55q-7 -32 15 -49t66 -17q92 0 148 31.5t67 88.5zM426 720q12 54 58.5 93t101.5 39q54 0 85 -39t19 -93q-12 -55 -58 -93.5t-101 -38.5q-54 0 -85.5 39
t-19.5 93zM500 720q-5 -24 8.5 -41t37.5 -17t44.5 17t25.5 41t-8.5 41t-37.5 17t-44.5 -17t-25.5 -41z" />
    <glyph glyph-name="ae" unicode="&#xe6;" horiz-adv-x="1167" 
d="M343 372h-202q24 63 64 104t93.5 59t98 23.5t105.5 5.5q83 0 130.5 -14.5t77.5 -47.5q35 29 94 45.5t119 16.5q166 0 230 -84t33 -233l-6 -26h-463q-10 -121 113 -121q80 0 125 60h206q-100 -182 -341 -182q-166 0 -221 87q-46 -40 -123 -63.5t-171 -23.5q-65 0 -112.5 9
t-81 29t-46 55t-1.5 85q17 79 80 117.5t192 48.5q28 2 84.5 5.5t84.5 5.5q60 4 70 47q7 34 -17 48t-80 14q-58 0 -90.5 -15t-44.5 -55zM739 325h271q2 52 -25 84.5t-88 32.5q-113 0 -158 -117zM543 218l6 30q-20 -9 -54.5 -14t-76.5 -7.5t-59 -5.5q-72 -8 -82 -60
q-6 -29 15 -45t67 -16q82 0 126.5 28t57.5 90z" />
    <glyph glyph-name="ccedilla" unicode="&#xe7;" 
d="M219 -197l29 51q38 -14 77 -14q22 0 36.5 10t16.5 24q3 12 -7.5 18.5t-26.5 6.5q-11 0 -37 -7l-21 20l59 68q-45 4 -95 16q-102 26 -144 95.5t-18 179.5q29 143 145.5 218t295.5 75q161 0 244 -55t72 -178h-218q2 46 -27.5 69.5t-96.5 23.5q-76 0 -126 -39.5t-65 -113.5
q-16 -74 17.5 -113.5t110.5 -39.5q126 0 168 103h224q-75 -183 -268 -227q-64 -14 -151 -16l-21 -26q27 3 41 3q94 -2 85 -80q-18 -95 -158 -95q-82 0 -141 23z" />
    <glyph glyph-name="egrave" unicode="&#xe8;" 
d="M318 331h314q0 50 -31.5 80.5t-102.5 30.5q-70 0 -115 -31t-65 -80zM581 161h224q-39 -77 -138.5 -130t-259.5 -53q-186 0 -268.5 73t-50.5 221q29 141 145.5 216.5t289.5 75.5q179 0 261 -81t47 -246l-4 -16h-532q-5 -121 145 -121q80 0 141 61zM455 600l-120 140h258
l62 -140h-200z" />
    <glyph glyph-name="eacute" unicode="&#xe9;" 
d="M318 331h314q0 50 -31.5 80.5t-102.5 30.5q-70 0 -115 -31t-65 -80zM581 161h224q-39 -77 -138.5 -130t-259.5 -53q-186 0 -268.5 73t-50.5 221q29 141 145.5 216.5t289.5 75.5q179 0 261 -81t47 -246l-4 -16h-532q-5 -121 145 -121q80 0 141 61zM444 600l120 140h258
l-178 -140h-200z" />
    <glyph glyph-name="ecircumflex" unicode="&#xea;" 
d="M318 331h314q0 50 -31.5 80.5t-102.5 30.5q-70 0 -115 -31t-65 -80zM581 161h224q-39 -77 -138.5 -130t-259.5 -53q-186 0 -268.5 73t-50.5 221q29 141 145.5 216.5t289.5 75.5q179 0 261 -81t47 -246l-4 -16h-532q-5 -121 145 -121q80 0 141 61zM250 600l177 140h296
l120 -140h-234l-55 77l-87 -77h-217z" />
    <glyph glyph-name="edieresis" unicode="&#xeb;" 
d="M318 331h314q0 50 -31.5 80.5t-102.5 30.5q-70 0 -115 -31t-65 -80zM581 161h224q-39 -77 -138.5 -130t-259.5 -53q-186 0 -268.5 73t-50.5 221q29 141 145.5 216.5t289.5 75.5q179 0 261 -81t47 -246l-4 -16h-532q-5 -121 145 -121q80 0 141 61zM276 606l27 128h212
l-27 -128h-212zM582 606l27 128h212l-27 -128h-212z" />
    <glyph glyph-name="igrave" unicode="&#xec;" horiz-adv-x="332" 
d="M60 0l112 542h212l-112 -542h-212zM185 600l-120 140h258l62 -140h-200z" />
    <glyph glyph-name="iacute" unicode="&#xed;" horiz-adv-x="332" 
d="M60 0l112 542h212l-112 -542h-212zM179 600l120 140h258l-178 -140h-200z" />
    <glyph glyph-name="icircumflex" unicode="&#xee;" horiz-adv-x="332" 
d="M60 0l112 542h212l-112 -542h-212zM-7 600l177 140h296l120 -140h-234l-55 77l-87 -77h-217z" />
    <glyph glyph-name="idieresis" unicode="&#xef;" horiz-adv-x="332" 
d="M60 0l112 542h212l-112 -542h-212zM23 606l27 128h212l-27 -128h-212zM329 606l27 128h212l-27 -128h-212z" />
    <glyph glyph-name="eth" unicode="&#xf0;" 
d="M301 241q-12 -59 19.5 -91t110.5 -32q156 0 182 123q12 59 -21 91t-110 32q-155 0 -181 -123zM262 580l128 51q-26 10 -100 33l135 111q95 -16 183 -55l132 53l64 -48l-117 -47q211 -141 159 -390q-64 -310 -444 -310q-185 0 -268.5 69t-54.5 204q25 122 131 187.5
t236 65.5q59 0 95 -9.5t65 -32.5l2 2q-30 76 -131 128l-160 -64z" />
    <glyph glyph-name="ntilde" unicode="&#xf1;" horiz-adv-x="778" 
d="M56 0l112 542h206l-16 -78h2q95 92 247 92q104 0 156 -50.5t33 -148.5l-74 -357h-212l60 293q22 103 -88 103q-60 0 -102.5 -33t-56.5 -97l-55 -266h-212zM336 603h-95q64 145 191 145q29 0 69 -9l133 -29q18 -5 27 -5q10 0 17.5 2.5t14.5 10t9.5 10.5t9.5 12h93
q-22 -65 -64.5 -106.5t-107.5 -41.5q-45 0 -186 35q-55 12 -57 12q-37 0 -54 -36z" />
    <glyph glyph-name="ograve" unicode="&#xf2;" 
d="M495 424q-74 0 -123.5 -38.5t-64.5 -114.5t17.5 -114.5t106.5 -38.5t123.5 38.5t64.5 114.5t-17.5 114.5t-106.5 38.5zM83 271q30 144 142.5 218.5t298.5 74.5t267.5 -74.5t51.5 -218.5t-142.5 -218.5t-298.5 -74.5t-267.5 74.5t-51.5 218.5zM445 600l-120 140h258
l62 -140h-200z" />
    <glyph glyph-name="oacute" unicode="&#xf3;" 
d="M495 424q-74 0 -123.5 -38.5t-64.5 -114.5t17.5 -114.5t106.5 -38.5t123.5 38.5t64.5 114.5t-17.5 114.5t-106.5 38.5zM83 271q30 144 142.5 218.5t298.5 74.5t267.5 -74.5t51.5 -218.5t-142.5 -218.5t-298.5 -74.5t-267.5 74.5t-51.5 218.5zM444 600l120 140h258
l-178 -140h-200z" />
    <glyph glyph-name="ocircumflex" unicode="&#xf4;" 
d="M495 424q-74 0 -123.5 -38.5t-64.5 -114.5t17.5 -114.5t106.5 -38.5t123.5 38.5t64.5 114.5t-17.5 114.5t-106.5 38.5zM83 271q30 144 142.5 218.5t298.5 74.5t267.5 -74.5t51.5 -218.5t-142.5 -218.5t-298.5 -74.5t-267.5 74.5t-51.5 218.5zM248 600l177 140h296
l120 -140h-234l-55 77l-87 -77h-217z" />
    <glyph glyph-name="otilde" unicode="&#xf5;" 
d="M495 424q-74 0 -123.5 -38.5t-64.5 -114.5t17.5 -114.5t106.5 -38.5t123.5 38.5t64.5 114.5t-17.5 114.5t-106.5 38.5zM83 271q30 144 142.5 218.5t298.5 74.5t267.5 -74.5t51.5 -218.5t-142.5 -218.5t-298.5 -74.5t-267.5 74.5t-51.5 218.5zM361 603h-95q64 145 191 145
q29 0 69 -9l133 -29q18 -5 27 -5q10 0 17.5 2.5t14.5 10t9.5 10.5t9.5 12h93q-22 -65 -64.5 -106.5t-107.5 -41.5q-45 0 -186 35q-55 12 -57 12q-37 0 -54 -36z" />
    <glyph glyph-name="odieresis" unicode="&#xf6;" 
d="M495 424q-74 0 -123.5 -38.5t-64.5 -114.5t17.5 -114.5t106.5 -38.5t123.5 38.5t64.5 114.5t-17.5 114.5t-106.5 38.5zM83 271q30 144 142.5 218.5t298.5 74.5t267.5 -74.5t51.5 -218.5t-142.5 -218.5t-298.5 -74.5t-267.5 74.5t-51.5 218.5zM274 606l27 128h212
l-27 -128h-212zM580 606l27 128h212l-27 -128h-212z" />
    <glyph glyph-name="divide" unicode="&#xf7;" horiz-adv-x="600" 
d="M85 183l29 140h506l-29 -140h-506zM297 465q8 42 43.5 70.5t76.5 28.5q42 0 64.5 -28.5t13.5 -70.5q-8 -42 -43 -70.5t-76 -28.5q-42 0 -64.5 28.5t-14.5 70.5zM209 41q8 42 43 70.5t77 28.5t64 -28.5t14 -70.5t-43 -70.5t-77 -28.5t-64 28.5t-14 70.5z" />
    <glyph glyph-name="oslash" unicode="&#xf8;" 
d="M23 15l91 61q-56 75 -31 195q30 144 142.5 218.5t298.5 74.5q159 0 242 -56l108 72l29 -53l-92 -61q57 -71 32 -195q-30 -144 -142.5 -218.5t-298.5 -74.5q-162 0 -242 56l-108 -72zM304 202l288 191q-31 31 -97 31q-74 0 -123.5 -38.5t-64.5 -114.5q-9 -41 -3 -69z
M621 340l-288 -191q31 -31 98 -31q74 0 123.5 38.5t64.5 114.5q8 43 2 69z" />
    <glyph glyph-name="ugrave" unicode="&#xf9;" horiz-adv-x="778" 
d="M96 197l72 345h212l-58 -280q-14 -67 7 -95.5t77 -28.5q60 0 102.5 33t56.5 97l57 274h212l-112 -542h-206l14 70h-2q-95 -92 -247 -92q-228 0 -185 219zM430 600l-120 140h258l62 -140h-200z" />
    <glyph glyph-name="uacute" unicode="&#xfa;" horiz-adv-x="778" 
d="M96 197l72 345h212l-58 -280q-14 -67 7 -95.5t77 -28.5q60 0 102.5 33t56.5 97l57 274h212l-112 -542h-206l14 70h-2q-95 -92 -247 -92q-228 0 -185 219zM412 600l120 140h258l-178 -140h-200z" />
    <glyph glyph-name="ucircumflex" unicode="&#xfb;" horiz-adv-x="778" 
d="M96 197l72 345h212l-58 -280q-14 -67 7 -95.5t77 -28.5q60 0 102.5 33t56.5 97l57 274h212l-112 -542h-206l14 70h-2q-95 -92 -247 -92q-228 0 -185 219zM224 600l177 140h296l120 -140h-234l-55 77l-87 -77h-217z" />
    <glyph glyph-name="udieresis" unicode="&#xfc;" horiz-adv-x="778" 
d="M96 197l72 345h212l-58 -280q-14 -67 7 -95.5t77 -28.5q60 0 102.5 33t56.5 97l57 274h212l-112 -542h-206l14 70h-2q-95 -92 -247 -92q-228 0 -185 219zM250 606l27 128h212l-27 -128h-212zM556 606l27 128h212l-27 -128h-212z" />
    <glyph glyph-name="yacute" unicode="&#xfd;" horiz-adv-x="685" 
d="M24 -190l28 134h51q35 0 57.5 6.5t30.5 13.5t17 19l34 48l-149 511h230l70 -322l199 322h224l-415 -610q-31 -47 -55.5 -71t-67.5 -40.5t-106 -16.5q-68 0 -148 6zM386 600l120 140h258l-178 -140h-200z" />
    <glyph glyph-name="thorn" unicode="&#xfe;" 
d="M15 -196l193 928h212l-55 -262h2q36 43 103.5 64.5t123.5 21.5q134 0 205.5 -74t42.5 -215q-27 -131 -132 -210t-236 -79q-139 0 -194 71h-2l-51 -245h-212zM324 270q-15 -64 16.5 -101t105.5 -37q150 0 179 138q14 68 -17.5 103t-104.5 35q-74 0 -120 -37t-59 -101z" />
    <glyph glyph-name="ydieresis" unicode="&#xff;" horiz-adv-x="685" 
d="M24 -190l28 134h51q35 0 57.5 6.5t30.5 13.5t17 19l34 48l-149 511h230l70 -322l199 322h224l-415 -610q-31 -47 -55.5 -71t-67.5 -40.5t-106 -16.5q-68 0 -148 6zM206 606l27 128h212l-27 -128h-212zM512 606l27 128h212l-27 -128h-212z" />
    <glyph glyph-name="Amacron" unicode="&#x100;" horiz-adv-x="852" 
d="M-28 0l458 714h291l159 -714h-255l-19 116h-312l-67 -116h-255zM580 264l-42 270h-2l-156 -270h200zM318 792l25 116h526l-25 -116h-526z" />
    <glyph glyph-name="amacron" unicode="&#x101;" 
d="M353 372h-212q16 47 44.5 81t62.5 53.5t81 31t90 15t99 3.5q80 0 136.5 -7.5t101.5 -27t63 -57t6 -92.5l-57 -274q-7 -32 -7 -55q0 -14 9 -43h-212q-3 12 -3 25q0 11 2 25q-51 -41 -115.5 -56.5t-154.5 -15.5q-132 0 -189.5 42t-40.5 127q19 90 84 129t187 48l214 14
q39 2 54 12t19 32q6 29 -23.5 43.5t-98.5 14.5q-113 0 -140 -68zM587 220l7 33q-27 -8 -84 -15l-147 -17q-62 -7 -72 -55q-7 -32 15 -49t66 -17q92 0 148 31.5t67 88.5zM274 612l25 116h526l-25 -116h-526z" />
    <glyph glyph-name="Abreve" unicode="&#x102;" horiz-adv-x="852" 
d="M-28 0l458 714h291l159 -714h-255l-19 116h-312l-67 -116h-255zM580 264l-42 270h-2l-156 -270h200zM377 928h116q0 -28 25 -40q26 -12 72 -12q98 0 119 52h116q-29 -83 -94 -121q-60 -35 -162 -35t-150 36t-42 120z" />
    <glyph glyph-name="abreve" unicode="&#x103;" 
d="M353 372h-212q16 47 44.5 81t62.5 53.5t81 31t90 15t99 3.5q80 0 136.5 -7.5t101.5 -27t63 -57t6 -92.5l-57 -274q-7 -32 -7 -55q0 -14 9 -43h-212q-3 12 -3 25q0 11 2 25q-51 -41 -115.5 -56.5t-154.5 -15.5q-132 0 -189.5 42t-40.5 127q19 90 84 129t187 48l214 14
q39 2 54 12t19 32q6 29 -23.5 43.5t-98.5 14.5q-113 0 -140 -68zM587 220l7 33q-27 -8 -84 -15l-147 -17q-62 -7 -72 -55q-7 -32 15 -49t66 -17q92 0 148 31.5t67 88.5zM327 748h116q0 -28 25 -40q26 -12 72 -12q98 0 119 52h116q-29 -83 -94 -121q-60 -35 -162 -35t-150 36
t-42 120z" />
    <glyph glyph-name="Aogonek" unicode="&#x104;" horiz-adv-x="852" 
d="M-28 0l458 714h291l159 -714h-152q-87 -68 -95 -115q-7 -39 35 -39q31 0 74 15l-7 -56q-62 -25 -136 -25q-67 0 -93.5 21t-17.5 61q9 42 42.5 73.5t94.5 64.5l-19 116h-312l-67 -116h-255zM580 264l-42 270h-2l-156 -270h200z" />
    <glyph glyph-name="aogonek" unicode="&#x105;" 
d="M353 372h-212q16 47 44.5 81t62.5 53.5t81 31t90 15t99 3.5q80 0 136.5 -7.5t101.5 -27t63 -57t6 -92.5l-57 -274q-7 -32 -7 -55q0 -14 9 -43h-109q-81 -72 -88 -115q-7 -39 34 -39q33 0 72 15l-7 -56q-60 -25 -132 -25q-65 0 -90.5 21t-16.5 61q8 41 38.5 72t86.5 66
q-3 12 -3 25q0 11 2 25q-51 -41 -115.5 -56.5t-154.5 -15.5q-132 0 -189.5 42t-40.5 127q19 90 84 129t187 48l214 14q39 2 54 12t19 32q6 29 -23.5 43.5t-98.5 14.5q-113 0 -140 -68zM587 220l7 33q-27 -8 -84 -15l-147 -17q-62 -7 -72 -55q-7 -32 15 -49t66 -17
q92 0 148 31.5t67 88.5z" />
    <glyph glyph-name="Cacute" unicode="&#x106;" horiz-adv-x="963" 
d="M729 275h264q-20 -51 -44 -91t-65.5 -80t-94.5 -66.5t-132.5 -43t-177.5 -16.5q-448 0 -370 379q37 183 169 281t359 98q70 0 124.5 -7t106 -26.5t84.5 -52t53 -86t20 -125.5h-265q-2 20 -5 34.5t-13 35.5t-25.5 34.5t-44.5 23t-68 9.5q-105 0 -164 -60.5t-79 -158.5
q-45 -219 152 -219q79 0 134 36t82 101zM559 780l120 140h258l-178 -140h-200z" />
    <glyph glyph-name="cacute" unicode="&#x107;" 
d="M608 221h224q-50 -121 -151 -182t-274 -61q-184 0 -267.5 73t-51.5 220q29 143 145.5 218t295.5 75q161 0 244 -55t72 -178h-218q2 46 -27.5 69.5t-96.5 23.5q-76 0 -126 -39.5t-65 -113.5q-16 -74 17.5 -113.5t110.5 -39.5q126 0 168 103zM444 600l120 140h258
l-178 -140h-200z" />
    <glyph glyph-name="Ccircumflex" unicode="&#x108;" horiz-adv-x="963" 
d="M729 275h264q-20 -51 -44 -91t-65.5 -80t-94.5 -66.5t-132.5 -43t-177.5 -16.5q-448 0 -370 379q37 183 169 281t359 98q70 0 124.5 -7t106 -26.5t84.5 -52t53 -86t20 -125.5h-265q-2 20 -5 34.5t-13 35.5t-25.5 34.5t-44.5 23t-68 9.5q-105 0 -164 -60.5t-79 -158.5
q-45 -219 152 -219q79 0 134 36t82 101zM357 780l177 140h296l120 -140h-234l-55 77l-87 -77h-217z" />
    <glyph glyph-name="ccircumflex" unicode="&#x109;" 
d="M608 221h224q-50 -121 -151 -182t-274 -61q-184 0 -267.5 73t-51.5 220q29 143 145.5 218t295.5 75q161 0 244 -55t72 -178h-218q2 46 -27.5 69.5t-96.5 23.5q-76 0 -126 -39.5t-65 -113.5q-16 -74 17.5 -113.5t110.5 -39.5q126 0 168 103zM254 600l177 140h296l120 -140
h-234l-55 77l-87 -77h-217z" />
    <glyph glyph-name="Cdotaccent" unicode="&#x10a;" horiz-adv-x="963" 
d="M729 275h264q-20 -51 -44 -91t-65.5 -80t-94.5 -66.5t-132.5 -43t-177.5 -16.5q-448 0 -370 379q37 183 169 281t359 98q70 0 124.5 -7t106 -26.5t84.5 -52t53 -86t20 -125.5h-265q-2 20 -5 34.5t-13 35.5t-25.5 34.5t-44.5 23t-68 9.5q-105 0 -164 -60.5t-79 -158.5
q-45 -219 152 -219q79 0 134 36t82 101zM533 786l27 128h212l-27 -128h-212z" />
    <glyph glyph-name="cdotaccent" unicode="&#x10b;" 
d="M608 221h224q-50 -121 -151 -182t-274 -61q-184 0 -267.5 73t-51.5 220q29 143 145.5 218t295.5 75q161 0 244 -55t72 -178h-218q2 46 -27.5 69.5t-96.5 23.5q-76 0 -126 -39.5t-65 -113.5q-16 -74 17.5 -113.5t110.5 -39.5q126 0 168 103zM421 606l27 128h212l-27 -128
h-212z" />
    <glyph glyph-name="Ccaron" unicode="&#x10c;" horiz-adv-x="963" 
d="M729 275h264q-20 -51 -44 -91t-65.5 -80t-94.5 -66.5t-132.5 -43t-177.5 -16.5q-448 0 -370 379q37 183 169 281t359 98q70 0 124.5 -7t106 -26.5t84.5 -52t53 -86t20 -125.5h-265q-2 20 -5 34.5t-13 35.5t-25.5 34.5t-44.5 23t-68 9.5q-105 0 -164 -60.5t-79 -158.5
q-45 -219 152 -219q79 0 134 36t82 101zM486 780l-119 140h233l55 -77l87 77h218l-178 -140h-296z" />
    <glyph glyph-name="ccaron" unicode="&#x10d;" 
d="M608 221h224q-50 -121 -151 -182t-274 -61q-184 0 -267.5 73t-51.5 220q29 143 145.5 218t295.5 75q161 0 244 -55t72 -178h-218q2 46 -27.5 69.5t-96.5 23.5q-76 0 -126 -39.5t-65 -113.5q-16 -74 17.5 -113.5t110.5 -39.5q126 0 168 103zM375 600l-119 140h233l55 -77
l87 77h218l-178 -140h-296z" />
    <glyph glyph-name="Dcaron" unicode="&#x10e;" horiz-adv-x="963" 
d="M72 0l148 714h516q167 0 235 -90t31 -267q-21 -102 -64.5 -173.5t-104 -110.5t-127.5 -56t-149 -17h-485zM425 554l-82 -394h199q172 0 214 198q41 196 -151 196h-180zM446 780l-119 140h233l55 -77l87 77h218l-178 -140h-296z" />
    <glyph glyph-name="dcaron" unicode="&#x10f;" horiz-adv-x="1001" 
d="M552 0l13 64h-2q-88 -86 -224 -86q-146 0 -216 77.5t-40 216.5q25 121 127 202.5t247 81.5t185 -83h2l53 257h212l-151 -730h-206zM602 270q13 64 -18 101t-105 37q-149 0 -178 -138q-14 -68 17 -103t104 -35t119 36.5t61 101.5zM924 570l64 160h199l-111 -160h-152z" />
    <glyph glyph-name="Dcroat" unicode="&#x110;" horiz-adv-x="963" 
d="M72 0l60 291h-72l28 134h72l60 289h516q167 0 235 -90t31 -267q-21 -102 -64.5 -173.5t-104 -110.5t-127.5 -56t-149 -17h-485zM554 425l-28 -134h-156l-27 -131h199q172 0 214 198q41 196 -151 196h-180l-27 -129h156z" />
    <glyph glyph-name="dcroat" unicode="&#x111;" horiz-adv-x="884" 
d="M552 0l13 64h-2q-88 -86 -224 -86q-146 0 -216 77.5t-40 216.5q25 121 127 202.5t247 81.5t185 -83h2l22 107h-164l20 91h163l12 59h212l-12 -59h121l-20 -91h-120l-120 -580h-206zM602 270q13 64 -18 101t-105 37q-149 0 -178 -138q-14 -68 17 -103t104 -35t119 36.5
t61 101.5z" />
    <glyph glyph-name="Emacron" unicode="&#x112;" horiz-adv-x="815" 
d="M72 0l148 714h715l-32 -154h-477l-27 -129h447l-31 -148h-447l-26 -129h477l-32 -154h-715zM317 792l25 116h526l-25 -116h-526z" />
    <glyph glyph-name="emacron" unicode="&#x113;" 
d="M318 331h314q0 50 -31.5 80.5t-102.5 30.5q-70 0 -115 -31t-65 -80zM581 161h224q-39 -77 -138.5 -130t-259.5 -53q-186 0 -268.5 73t-50.5 221q29 141 145.5 216.5t289.5 75.5q179 0 261 -81t47 -246l-4 -16h-532q-5 -121 145 -121q80 0 141 61zM262 612l25 116h526
l-25 -116h-526z" />
    <glyph glyph-name="Ebreve" unicode="&#x114;" horiz-adv-x="815" 
d="M72 0l148 714h715l-32 -154h-477l-27 -129h447l-31 -148h-447l-26 -129h477l-32 -154h-715zM368 928h116q0 -28 25 -40t72 -12q98 0 119 52h116q-29 -83 -94 -121q-60 -35 -162 -35t-150 36t-42 120z" />
    <glyph glyph-name="ebreve" unicode="&#x115;" 
d="M318 331h314q0 50 -31.5 80.5t-102.5 30.5q-70 0 -115 -31t-65 -80zM581 161h224q-39 -77 -138.5 -130t-259.5 -53q-186 0 -268.5 73t-50.5 221q29 141 145.5 216.5t289.5 75.5q179 0 261 -81t47 -246l-4 -16h-532q-5 -121 145 -121q80 0 141 61zM325 748h116
q0 -28 25 -40q26 -12 72 -12q98 0 119 52h116q-29 -83 -94 -121q-60 -35 -162 -35t-150 36t-42 120z" />
    <glyph glyph-name="Edotaccent" unicode="&#x116;" horiz-adv-x="815" 
d="M72 0l148 714h715l-32 -154h-477l-27 -129h447l-31 -148h-447l-26 -129h477l-32 -154h-715zM470 786l27 128h212l-27 -128h-212z" />
    <glyph glyph-name="edotaccent" unicode="&#x117;" 
d="M318 331h314q0 50 -31.5 80.5t-102.5 30.5q-70 0 -115 -31t-65 -80zM581 161h224q-39 -77 -138.5 -130t-259.5 -53q-186 0 -268.5 73t-50.5 221q29 141 145.5 216.5t289.5 75.5q179 0 261 -81t47 -246l-4 -16h-532q-5 -121 145 -121q80 0 141 61zM419 606l27 128h212
l-27 -128h-212z" />
    <glyph glyph-name="Eogonek" unicode="&#x118;" horiz-adv-x="815" 
d="M787 0h-31q-56 -42 -82 -67.5t-30 -47.5q-7 -39 35 -39q31 0 74 15l-7 -56q-62 -25 -136 -25q-67 0 -93.5 21t-17.5 61q16 74 167 138h-594l148 714h715l-32 -154h-477l-27 -129h447l-31 -148h-447l-26 -129h477z" />
    <glyph glyph-name="eogonek" unicode="&#x119;" 
d="M581 161h224q-61 -123 -245 -167q-33 -8 -82 -13q-31 -23 -54 -46q-27 -26 -32 -50q-7 -39 35 -39q31 0 74 15l-7 -56q-62 -25 -136 -25q-67 0 -93.5 21t-17.5 61q11 46 56 78q27 18 65 39q-65 3 -120 17q-208 53 -160 276q29 141 145.5 216.5t289.5 75.5q179 0 261 -81
t47 -246l-4 -16h-532q-5 -121 145 -121q80 0 141 61zM318 331h314q0 50 -31.5 80.5t-102.5 30.5q-70 0 -115 -31t-65 -80z" />
    <glyph glyph-name="Ecaron" unicode="&#x11a;" horiz-adv-x="815" 
d="M72 0l148 714h715l-32 -154h-477l-27 -129h447l-31 -148h-447l-26 -129h477l-32 -154h-715zM422 780l-119 140h233l55 -77l87 77h218l-178 -140h-296z" />
    <glyph glyph-name="ecaron" unicode="&#x11b;" 
d="M318 331h314q0 50 -31.5 80.5t-102.5 30.5q-70 0 -115 -31t-65 -80zM581 161h224q-39 -77 -138.5 -130t-259.5 -53q-186 0 -268.5 73t-50.5 221q29 141 145.5 216.5t289.5 75.5q179 0 261 -81t47 -246l-4 -16h-532q-5 -121 145 -121q80 0 141 61zM380 600l-119 140h233
l55 -77l87 77h218l-178 -140h-296z" />
    <glyph glyph-name="Gcircumflex" unicode="&#x11c;" horiz-adv-x="1000" 
d="M601 257l31 148h384l-84 -405h-111l-14 74q-37 -35 -121 -65.5t-207 -30.5q-230 0 -319.5 95.5t-50.5 283.5q34 167 170 273t357 106q80 0 147 -12t127.5 -39t93 -79.5t27.5 -126.5h-269q-6 103 -148 103q-105 0 -171 -62.5t-88 -163.5q-21 -99 19.5 -161.5t145.5 -62.5
q165 0 227 125h-146zM361 780l177 140h296l120 -140h-234l-55 77l-87 -77h-217z" />
    <glyph glyph-name="gcircumflex" unicode="&#x11d;" horiz-adv-x="833" 
d="M669 473l14 69h206l-102 -493q-28 -136 -124.5 -196.5t-290.5 -60.5q-85 0 -144.5 8.5t-104.5 28.5t-66 57t-18 92h234q0 -64 116 -64q88 0 129.5 32.5t57.5 108.5l8 38q-40 -34 -103 -51.5t-129 -17.5q-163 0 -227 73.5t-38 192.5q23 114 122 190t254 76q160 0 204 -83
h2zM310 287q-13 -57 19.5 -93t109.5 -36q156 0 185 127q13 60 -19.5 95.5t-111.5 35.5q-77 0 -123.5 -35.5t-59.5 -93.5zM264 600l177 140h296l120 -140h-234l-55 77l-87 -77h-217z" />
    <glyph glyph-name="Gbreve" unicode="&#x11e;" horiz-adv-x="1000" 
d="M601 257l31 148h384l-84 -405h-111l-14 74q-37 -35 -121 -65.5t-207 -30.5q-230 0 -319.5 95.5t-50.5 283.5q34 167 170 273t357 106q80 0 147 -12t127.5 -39t93 -79.5t27.5 -126.5h-269q-6 103 -148 103q-105 0 -171 -62.5t-88 -163.5q-21 -99 19.5 -161.5t145.5 -62.5
q165 0 227 125h-146zM451 928h116q0 -28 25 -40q26 -12 72 -12q98 0 119 52h116q-29 -83 -94 -121q-60 -35 -162 -35t-150 36t-42 120z" />
    <glyph glyph-name="gbreve" unicode="&#x11f;" horiz-adv-x="833" 
d="M669 473l14 69h206l-102 -493q-28 -136 -124.5 -196.5t-290.5 -60.5q-85 0 -144.5 8.5t-104.5 28.5t-66 57t-18 92h234q0 -64 116 -64q88 0 129.5 32.5t57.5 108.5l8 38q-40 -34 -103 -51.5t-129 -17.5q-163 0 -227 73.5t-38 192.5q23 114 122 190t254 76q160 0 204 -83
h2zM310 287q-13 -57 19.5 -93t109.5 -36q156 0 185 127q13 60 -19.5 95.5t-111.5 35.5q-77 0 -123.5 -35.5t-59.5 -93.5zM331 748h116q0 -28 25 -40q26 -12 72 -12q98 0 119 52h116q-29 -83 -94 -121q-60 -35 -162 -35t-150 36t-42 120z" />
    <glyph glyph-name="Gdotaccent" unicode="&#x120;" horiz-adv-x="1000" 
d="M601 257l31 148h384l-84 -405h-111l-14 74q-37 -35 -121 -65.5t-207 -30.5q-230 0 -319.5 95.5t-50.5 283.5q34 167 170 273t357 106q80 0 147 -12t127.5 -39t93 -79.5t27.5 -126.5h-269q-6 103 -148 103q-105 0 -171 -62.5t-88 -163.5q-21 -99 19.5 -161.5t145.5 -62.5
q165 0 227 125h-146zM537 786l27 128h212l-27 -128h-212z" />
    <glyph glyph-name="gdotaccent" unicode="&#x121;" horiz-adv-x="833" 
d="M669 473l14 69h206l-102 -493q-28 -136 -124.5 -196.5t-290.5 -60.5q-85 0 -144.5 8.5t-104.5 28.5t-66 57t-18 92h234q0 -64 116 -64q88 0 129.5 32.5t57.5 108.5l8 38q-40 -34 -103 -51.5t-129 -17.5q-163 0 -227 73.5t-38 192.5q23 114 122 190t254 76q160 0 204 -83
h2zM310 287q-13 -57 19.5 -93t109.5 -36q156 0 185 127q13 60 -19.5 95.5t-111.5 35.5q-77 0 -123.5 -35.5t-59.5 -93.5zM414 606l27 128h212l-27 -128h-212z" />
    <glyph glyph-name="Gcommaaccent" unicode="&#x122;" horiz-adv-x="1000" 
d="M601 257l31 148h384l-84 -405h-111l-14 74q-37 -35 -121 -65.5t-207 -30.5q-230 0 -319.5 95.5t-50.5 283.5q34 167 170 273t357 106q80 0 147 -12t127.5 -39t93 -79.5t27.5 -126.5h-269q-6 103 -148 103q-105 0 -171 -62.5t-88 -163.5q-21 -99 19.5 -161.5t145.5 -62.5
q165 0 227 125h-146zM364 -158l22 108h208l-16 -76q-6 -30 -24 -54q-16 -24 -52 -40q-34 -15 -114 -15l9 45q55 5 66 32h-99z" />
    <glyph glyph-name="gcommaaccent" unicode="&#x123;" horiz-adv-x="833" 
d="M669 473l14 69h206l-102 -493q-28 -136 -124.5 -196.5t-290.5 -60.5q-85 0 -144.5 8.5t-104.5 28.5t-66 57t-18 92h234q0 -64 116 -64q88 0 129.5 32.5t57.5 108.5l8 38q-40 -34 -103 -51.5t-129 -17.5q-163 0 -227 73.5t-38 192.5q23 114 122 190t254 76q160 0 204 -83
h2zM310 287q-13 -57 19.5 -93t109.5 -36q156 0 185 127q13 60 -19.5 95.5t-111.5 35.5q-77 0 -123.5 -35.5t-59.5 -93.5zM658 730l-22 -108h-208l16 76q6 29 23 54q17 24 53 40q34 15 114 15l-9 -45q-32 -3 -46 -10t-20 -22h99z" />
    <glyph glyph-name="Hcircumflex" unicode="&#x124;" horiz-adv-x="981" 
d="M671 0l62 299h-361l-62 -299h-238l148 714h238l-53 -255h361l53 255h238l-148 -714h-238zM359 780l177 140h296l120 -140h-234l-55 77l-87 -77h-217z" />
    <glyph glyph-name="hcircumflex" unicode="&#x125;" horiz-adv-x="778" 
d="M56 0l152 732h212l-56 -268h2q38 42 100.5 67t140.5 25q104 0 156 -50.5t33 -148.5l-74 -357h-212l60 293q22 103 -88 103q-60 0 -102.5 -33t-56.5 -97l-55 -266h-212zM254 780l177 140h296l120 -140h-234l-55 77l-87 -77h-217z" />
    <glyph glyph-name="Hbar" unicode="&#x126;" horiz-adv-x="981" 
d="M671 0l60 289h-361l-60 -289h-238l148 714h238l-26 -124h361l26 124h238l-148 -714h-238zM401 439h361l12 60h-361z" />
    <glyph glyph-name="hbar" unicode="&#x127;" horiz-adv-x="848" 
d="M126 580l20 91h119l13 61h212l-13 -61h165l-20 -91h-164l-24 -116h2q38 42 100.5 67t140.5 25q104 0 156 -50.5t33 -148.5l-74 -357h-212l60 293q22 103 -88 103q-60 0 -102.5 -33t-56.5 -97l-55 -266h-212l120 580h-120z" />
    <glyph glyph-name="Itilde" unicode="&#x128;" horiz-adv-x="388" 
d="M75 0l148 714h238l-148 -714h-238zM177 783h-95q64 145 191 145q29 0 69 -9l133 -29q18 -5 27 -5q10 0 17.5 2.5t14.5 10t9.5 10.5t9.5 12h93q-22 -65 -64.5 -106.5t-107.5 -41.5q-45 0 -186 35q-55 12 -57 12q-37 0 -54 -36z" />
    <glyph glyph-name="itilde" unicode="&#x129;" horiz-adv-x="332" 
d="M60 0l112 542h212l-112 -542h-212zM107 603h-95q64 145 191 145q29 0 69 -9l133 -29q18 -5 27 -5q10 0 17.5 2.5t14.5 10t9.5 10.5t9.5 12h93q-22 -65 -64.5 -106.5t-107.5 -41.5q-45 0 -186 35q-55 12 -57 12q-37 0 -54 -36z" />
    <glyph glyph-name="Imacron" unicode="&#x12a;" horiz-adv-x="388" 
d="M75 0l148 714h238l-148 -714h-238zM88 792l25 116h526l-25 -116h-526z" />
    <glyph glyph-name="imacron" unicode="&#x12b;" horiz-adv-x="332" 
d="M60 0l112 542h212l-112 -542h-212zM22 612l25 116h526l-25 -116h-526z" />
    <glyph glyph-name="Iogonek" unicode="&#x12e;" horiz-adv-x="388" 
d="M313 0h-26q-56 -42 -82 -67.5t-30 -47.5q-7 -39 35 -39q31 0 74 15l-7 -56q-62 -25 -136 -25q-67 0 -93.5 21t-17.5 61q16 74 167 138h-122l148 714h238z" />
    <glyph glyph-name="iogonek" unicode="&#x12f;" horiz-adv-x="332" 
d="M272 0h-18q-54 -41 -79.5 -67t-29.5 -48q-7 -39 34 -39q33 0 72 15l-7 -56q-60 -25 -132 -25q-65 0 -90.5 21t-16.5 61q8 42 49.5 74.5t112.5 63.5h-107l112 542h212zM185 604l27 128h212l-27 -128h-212z" />
    <glyph glyph-name="Idotaccent" unicode="&#x130;" horiz-adv-x="388" 
d="M75 0l148 714h238l-148 -714h-238zM247 786l27 128h212l-27 -128h-212z" />
    <glyph glyph-name="dotlessi" unicode="&#x131;" horiz-adv-x="332" 
d="M60 0l112 542h212l-112 -542h-212z" />
    <glyph glyph-name="Jcircumflex" unicode="&#x134;" horiz-adv-x="741" 
d="M62 256l6 30h238q-19 -80 -7 -117t72 -37t86.5 31.5t39.5 98.5l94 452h238l-97 -466q-10 -46 -24 -82t-42 -73t-67.5 -61t-101.5 -39t-142 -15q-47 0 -84.5 3.5t-73.5 12t-60.5 22.5t-45.5 35t-28.5 50t-10 67.5t9.5 87.5zM427 780l177 140h296l120 -140h-234l-55 77
l-87 -77h-217z" />
    <glyph glyph-name="jcircumflex" unicode="&#x135;" horiz-adv-x="352" 
d="M-67 -193l31 145h25q54 0 69.5 12t25.5 58l108 520h212l-111 -535q-24 -118 -76 -160.5t-179 -42.5q-21 0 -105 3zM12 600l177 140h296l120 -140h-234l-55 77l-87 -77h-217z" />
    <glyph glyph-name="Kcommaaccent" unicode="&#x136;" horiz-adv-x="926" 
d="M72 0l148 714h238l-58 -280l356 280h317l-381 -281l258 -433h-318l-162 285l-119 -84l-41 -201h-238zM345 -158l22 108h208l-16 -76q-6 -30 -24 -54q-16 -24 -52 -40q-35 -15 -114 -15l9 45q55 5 66 32h-99z" />
    <glyph glyph-name="kcommaaccent" unicode="&#x137;" horiz-adv-x="778" 
d="M56 0l152 732h212l-79 -379l251 189h287l-292 -201l204 -341h-288l-112 205l-94 -65l-29 -140h-212zM265 -158l22 108h208l-16 -76q-6 -30 -24 -54q-16 -24 -52 -40q-35 -15 -114 -15l9 45q55 5 66 32h-99z" />
    <glyph glyph-name="Lacute" unicode="&#x139;" horiz-adv-x="760" 
d="M72 0l148 714h238l-114 -548h435l-34 -166h-673zM247 780l120 140h258l-178 -140h-200z" />
    <glyph glyph-name="lacute" unicode="&#x13a;" horiz-adv-x="332" 
d="M60 0l152 732h212l-152 -732h-212zM216 780l120 140h258l-178 -140h-200z" />
    <glyph glyph-name="Lcommaaccent" unicode="&#x13b;" horiz-adv-x="760" 
d="M72 0l148 714h238l-114 -548h435l-34 -166h-673zM286 -158l22 108h208l-16 -76q-6 -30 -24 -54q-16 -24 -52 -40q-34 -15 -114 -15l9 45q55 5 66 32h-99z" />
    <glyph glyph-name="lcommaaccent" unicode="&#x13c;" horiz-adv-x="332" 
d="M60 0l152 732h212l-152 -732h-212zM32 -158l22 108h208l-16 -76q-6 -30 -24 -54q-16 -24 -52 -40q-34 -15 -114 -15l9 45q55 5 66 32h-99z" />
    <glyph glyph-name="Lcaron" unicode="&#x13d;" horiz-adv-x="760" 
d="M72 0l148 714h238l-114 -548h435l-34 -166h-673zM507 570l64 160h199l-111 -160h-152z" />
    <glyph glyph-name="lcaron" unicode="&#x13e;" horiz-adv-x="516" 
d="M60 0l152 732h212l-152 -732h-212zM439 570l64 160h199l-111 -160h-152z" />
    <glyph glyph-name="Ldot" unicode="&#x13f;" horiz-adv-x="760" 
d="M72 0l148 714h238l-114 -548h435l-34 -166h-673zM494 346l19 194h151l-19 -194h-151z" />
    <glyph glyph-name="ldot" unicode="&#x140;" horiz-adv-x="537" 
d="M60 0l152 732h212l-152 -732h-212zM418 346l19 197h148l-19 -197h-148z" />
    <glyph glyph-name="Lslash" unicode="&#x141;" horiz-adv-x="760" 
d="M34 164l33 160l81 44l72 346h238l-45 -217l193 105l-34 -160l-192 -105l-36 -171h435l-34 -166h-673l43 208z" />
    <glyph glyph-name="lslash" unicode="&#x142;" horiz-adv-x="332" 
d="M60 0l53 259l-67 -37l29 140l67 37l70 333h212l-44 -212l67 36l-29 -140l-67 -36l-79 -380h-212z" />
    <glyph glyph-name="Nacute" unicode="&#x143;" horiz-adv-x="981" 
d="M72 0l148 714h274l238 -447h2l93 447h230l-148 -714h-263l-249 451h-2l-93 -451h-230zM541 780l120 140h258l-178 -140h-200z" />
    <glyph glyph-name="nacute" unicode="&#x144;" horiz-adv-x="778" 
d="M56 0l112 542h206l-16 -78h2q95 92 247 92q104 0 156 -50.5t33 -148.5l-74 -357h-212l60 293q22 103 -88 103q-60 0 -102.5 -33t-56.5 -97l-55 -266h-212zM427 600l120 140h258l-178 -140h-200z" />
    <glyph glyph-name="Ncommaaccent" unicode="&#x145;" horiz-adv-x="981" 
d="M72 0l148 714h274l238 -447h2l93 447h230l-148 -714h-263l-249 451h-2l-93 -451h-230zM350 -158l22 108h208l-16 -76q-6 -30 -24 -54q-16 -24 -52 -40q-34 -15 -114 -15l9 45q55 5 66 32h-99z" />
    <glyph glyph-name="ncommaaccent" unicode="&#x146;" horiz-adv-x="778" 
d="M56 0l112 542h206l-16 -78h2q95 92 247 92q104 0 156 -50.5t33 -148.5l-74 -357h-212l60 293q22 103 -88 103q-60 0 -102.5 -33t-56.5 -97l-55 -266h-212zM258 -158l22 108h208l-16 -76q-6 -30 -24 -54q-16 -24 -52 -40q-34 -15 -114 -15l9 45q55 5 66 32h-99z" />
    <glyph glyph-name="Ncaron" unicode="&#x147;" horiz-adv-x="981" 
d="M72 0l148 714h274l238 -447h2l93 447h230l-148 -714h-263l-249 451h-2l-93 -451h-230zM490 780l-119 140h233l55 -77l87 77h218l-178 -140h-296z" />
    <glyph glyph-name="ncaron" unicode="&#x148;" horiz-adv-x="778" 
d="M56 0l112 542h206l-16 -78h2q95 92 247 92q104 0 156 -50.5t33 -148.5l-74 -357h-212l60 293q22 103 -88 103q-60 0 -102.5 -33t-56.5 -97l-55 -266h-212zM348 600l-119 140h233l55 -77l87 77h218l-178 -140h-296z" />
    <glyph glyph-name="Omacron" unicode="&#x14c;" horiz-adv-x="1000" 
d="M109 357q78 379 544 379q56 0 104 -5.5t93.5 -18t79.5 -32.5t62 -49.5t41 -69t17 -90.5t-11 -114q-78 -379 -544 -379q-56 0 -104 5.5t-93.5 18t-79.5 32.5t-62 49.5t-41 69t-17 90.5t11 114zM361 357q-23 -109 23 -164t144 -55q100 0 168 55t91 164q23 108 -23 163.5
t-145 55.5t-167 -55.5t-91 -163.5zM406 792l25 116h526l-25 -116h-526z" />
    <glyph glyph-name="omacron" unicode="&#x14d;" 
d="M495 424q-74 0 -123.5 -38.5t-64.5 -114.5t17.5 -114.5t106.5 -38.5t123.5 38.5t64.5 114.5t-17.5 114.5t-106.5 38.5zM83 271q30 144 142.5 218.5t298.5 74.5t267.5 -74.5t51.5 -218.5t-142.5 -218.5t-298.5 -74.5t-267.5 74.5t-51.5 218.5zM268 612l25 116h526
l-25 -116h-526z" />
    <glyph glyph-name="Obreve" unicode="&#x14e;" horiz-adv-x="1000" 
d="M109 357q78 379 544 379q56 0 104 -5.5t93.5 -18t79.5 -32.5t62 -49.5t41 -69t17 -90.5t-11 -114q-78 -379 -544 -379q-56 0 -104 5.5t-93.5 18t-79.5 32.5t-62 49.5t-41 69t-17 90.5t11 114zM361 357q-23 -109 23 -164t144 -55q100 0 168 55t91 164q23 108 -23 163.5
t-145 55.5t-167 -55.5t-91 -163.5zM465 928h116q0 -28 25 -40q26 -12 72 -12q98 0 119 52h116q-29 -83 -94 -121q-60 -35 -162 -35t-150 36t-42 120z" />
    <glyph glyph-name="obreve" unicode="&#x14f;" 
d="M495 424q-74 0 -123.5 -38.5t-64.5 -114.5t17.5 -114.5t106.5 -38.5t123.5 38.5t64.5 114.5t-17.5 114.5t-106.5 38.5zM83 271q30 144 142.5 218.5t298.5 74.5t267.5 -74.5t51.5 -218.5t-142.5 -218.5t-298.5 -74.5t-267.5 74.5t-51.5 218.5zM323 748h116q0 -28 25 -40
q26 -12 72 -12q98 0 119 52h116q-29 -83 -94 -121q-60 -35 -162 -35t-150 36t-42 120z" />
    <glyph glyph-name="Ohungarumlaut" unicode="&#x150;" horiz-adv-x="1000" 
d="M109 357q78 379 544 379q56 0 104 -5.5t93.5 -18t79.5 -32.5t62 -49.5t41 -69t17 -90.5t-11 -114q-78 -379 -544 -379q-56 0 -104 5.5t-93.5 18t-79.5 32.5t-62 49.5t-41 69t-17 90.5t11 114zM361 357q-23 -109 23 -164t144 -55q100 0 168 55t91 164q23 108 -23 163.5
t-145 55.5t-167 -55.5t-91 -163.5zM412 780l119 140h258l-178 -140h-199zM716 780l120 140h258l-178 -140h-200z" />
    <glyph glyph-name="ohungarumlaut" unicode="&#x151;" 
d="M495 424q-74 0 -123.5 -38.5t-64.5 -114.5t17.5 -114.5t106.5 -38.5t123.5 38.5t64.5 114.5t-17.5 114.5t-106.5 38.5zM83 271q30 144 142.5 218.5t298.5 74.5t267.5 -74.5t51.5 -218.5t-142.5 -218.5t-298.5 -74.5t-267.5 74.5t-51.5 218.5zM271 600l119 140h258
l-178 -140h-199zM575 600l120 140h258l-178 -140h-200z" />
    <glyph glyph-name="OE" unicode="&#x152;" horiz-adv-x="1167" 
d="M626 258l45 214q8 42 -27 76t-90 34q-85 0 -136 -62t-71 -163t4.5 -163t108.5 -62q63 0 109 39.5t57 86.5zM574 0l9 48q-93 -70 -214 -70q-153 0 -225 99.5t-35 279.5q38 180 152.5 279.5t271.5 99.5q130 0 179 -70l10 48h559l-32 -154h-354l-27 -129h341l-31 -148h-341
l-26 -129h360l-32 -154h-565z" />
    <glyph glyph-name="oe" unicode="&#x153;" horiz-adv-x="1167" 
d="M955 160h206q-100 -182 -341 -182q-166 0 -221 82q-106 -82 -246 -82q-163 0 -230.5 77.5t-39.5 215.5t128.5 215.5t263.5 77.5q143 0 215 -72q86 72 233 72q166 0 230 -84t33 -233l-6 -26h-463q-10 -121 113 -121q80 0 125 60zM560 271q31 153 -104 153
q-136 0 -167 -153q-32 -153 103 -153q136 0 168 153zM739 325h271q2 52 -25 84.5t-88 32.5q-113 0 -158 -117z" />
    <glyph glyph-name="Racute" unicode="&#x154;" horiz-adv-x="926" 
d="M425 554l-33 -156h229q88 0 106 79q7 36 -11.5 56.5t-61.5 20.5h-229zM72 0l148 714h572q238 0 198 -199q-14 -68 -54 -109t-94 -54l-1 -2q72 -26 60 -128q-9 -68 -11.5 -91.5t-4.5 -56.5t2 -47t13 -27h-261q-7 33 8 106q17 78 -1.5 105t-68.5 27h-218l-49 -238h-238z
M496 780l120 140h258l-178 -140h-200z" />
    <glyph glyph-name="racute" unicode="&#x155;" horiz-adv-x="574" 
d="M60 0l112 542h209l-22 -107h2q44 55 109.5 88t136.5 33q41 0 71 -6l-41 -198q-41 18 -114 18q-174 0 -208 -160l-43 -210h-212zM187 600l120 140h258l-178 -140h-200z" />
    <glyph glyph-name="Rcommaaccent" unicode="&#x156;" horiz-adv-x="926" 
d="M425 554l-33 -156h229q88 0 106 79q7 36 -11.5 56.5t-61.5 20.5h-229zM72 0l148 714h572q238 0 198 -199q-14 -68 -54 -109t-94 -54l-1 -2q72 -26 60 -128q-9 -68 -11.5 -91.5t-4.5 -56.5t2 -47t13 -27h-261q-7 33 8 106q17 78 -1.5 105t-68.5 27h-218l-49 -238h-238z
M346 -158l22 108h208l-16 -76q-6 -30 -24 -54q-16 -24 -52 -40q-34 -15 -114 -15l9 45q55 5 66 32h-99z" />
    <glyph glyph-name="rcommaaccent" unicode="&#x157;" horiz-adv-x="574" 
d="M60 0l112 542h209l-22 -107h2q44 55 109.5 88t136.5 33q41 0 71 -6l-41 -198q-41 18 -114 18q-174 0 -208 -160l-43 -210h-212zM33 -158l22 108h208l-16 -76q-6 -30 -24 -54q-16 -24 -52 -40q-35 -15 -114 -15l9 45q55 5 66 32h-99z" />
    <glyph glyph-name="Rcaron" unicode="&#x158;" horiz-adv-x="926" 
d="M425 554l-33 -156h229q88 0 106 79q7 36 -11.5 56.5t-61.5 20.5h-229zM72 0l148 714h572q238 0 198 -199q-14 -68 -54 -109t-94 -54l-1 -2q72 -26 60 -128q-9 -68 -11.5 -91.5t-4.5 -56.5t2 -47t13 -27h-261q-7 33 8 106q17 78 -1.5 105t-68.5 27h-218l-49 -238h-238z
M443 780l-119 140h233l55 -77l87 77h218l-178 -140h-296z" />
    <glyph glyph-name="rcaron" unicode="&#x159;" horiz-adv-x="574" 
d="M60 0l112 542h209l-22 -107h2q44 55 109.5 88t136.5 33q41 0 71 -6l-41 -198q-41 18 -114 18q-174 0 -208 -160l-43 -210h-212zM281 600l-119 140h233l55 -77l87 77h218l-178 -140h-296z" />
    <glyph glyph-name="Sacute" unicode="&#x15a;" horiz-adv-x="889" 
d="M940 505h-270q2 40 -28.5 61.5t-108.5 21.5q-123 0 -139 -70q-8 -35 44 -44q26 -5 303 -49q102 -19 146 -66t25 -137q-52 -244 -463 -244q-98 0 -167 10t-123.5 36t-77.5 75t-13 121h282q-4 -44 25.5 -66t116.5 -22q125 0 141 75q5 28 -16.5 41t-83.5 23l-231 36
q-196 29 -162 202q6 31 20.5 59.5t46 60t75.5 54.5t115.5 38t161.5 15q202 0 299 -54.5t82 -176.5zM494 780l120 140h258l-178 -140h-200z" />
    <glyph glyph-name="sacute" unicode="&#x15b;" horiz-adv-x="759" 
d="M62 169h246q-3 -32 20 -46q26 -17 91 -17q97 0 107 48q5 21 -9.5 29t-55.5 14l-184 23q-92 11 -130.5 47t-24.5 104q21 105 114 149t255 44q49 0 89.5 -4t83.5 -15.5t71.5 -30.5t44.5 -52.5t11 -77.5h-238q4 32 -28 46q-25 12 -74 12q-97 0 -107 -51q-3 -14 10 -23.5
t50 -14.5l179 -20q109 -12 153.5 -51t29.5 -116q-39 -188 -386 -188q-51 0 -94 4t-90 16.5t-78 32.5t-47.5 55.5t-8.5 82.5zM400 600l120 140h258l-178 -140h-200z" />
    <glyph glyph-name="Scircumflex" unicode="&#x15c;" horiz-adv-x="889" 
d="M940 505h-270q2 40 -28.5 61.5t-108.5 21.5q-123 0 -139 -70q-8 -35 44 -44q26 -5 303 -49q102 -19 146 -66t25 -137q-52 -244 -463 -244q-98 0 -167 10t-123.5 36t-77.5 75t-13 121h282q-4 -44 25.5 -66t116.5 -22q125 0 141 75q5 28 -16.5 41t-83.5 23l-231 36
q-196 29 -162 202q6 31 20.5 59.5t46 60t75.5 54.5t115.5 38t161.5 15q202 0 299 -54.5t82 -176.5zM283 780l177 140h296l120 -140h-234l-55 77l-87 -77h-217z" />
    <glyph glyph-name="scircumflex" unicode="&#x15d;" horiz-adv-x="759" 
d="M62 169h246q-3 -32 20 -46q26 -17 91 -17q97 0 107 48q5 21 -9.5 29t-55.5 14l-184 23q-92 11 -130.5 47t-24.5 104q21 105 114 149t255 44q49 0 89.5 -4t83.5 -15.5t71.5 -30.5t44.5 -52.5t11 -77.5h-238q4 32 -28 46q-25 12 -74 12q-97 0 -107 -51q-3 -14 10 -23.5
t50 -14.5l179 -20q109 -12 153.5 -51t29.5 -116q-39 -188 -386 -188q-51 0 -94 4t-90 16.5t-78 32.5t-47.5 55.5t-8.5 82.5zM210 600l177 140h296l120 -140h-234l-55 77l-87 -77h-217z" />
    <glyph glyph-name="Scedilla" unicode="&#x15e;" horiz-adv-x="889" 
d="M282 -197l29 51q38 -14 77 -14q22 0 36.5 10t16.5 24q3 12 -7.5 18.5t-26.5 6.5q-11 0 -37 -7l-21 20l57 67q-66 1 -123 9q-117 16 -173 70.5t-42 161.5h282q-4 -44 25.5 -66t116.5 -22q125 0 141 75q5 28 -16.5 41t-83.5 23l-231 36q-196 29 -162 202q6 31 20.5 59.5
t46 60t75.5 54.5t115.5 38t161.5 15q202 0 299 -54.5t82 -176.5h-270q2 40 -28.5 61.5t-108.5 21.5q-123 0 -139 -70q-8 -35 44 -44q26 -5 303 -49q102 -19 146 -66t25 -137q-12 -58 -45.5 -102t-75 -69.5t-94 -42t-96 -22t-88.5 -6.5q-7 0 -19 -0.5t-18 -1.5l-21 -26
q27 3 41 3q94 -2 85 -80q-18 -95 -158 -95q-82 0 -141 23z" />
    <glyph glyph-name="Scedilla" unicode="&#xf6c1;" horiz-adv-x="889" 
d="M282 -197l29 51q38 -14 77 -14q22 0 36.5 10t16.5 24q3 12 -7.5 18.5t-26.5 6.5q-11 0 -37 -7l-21 20l57 67q-66 1 -123 9q-117 16 -173 70.5t-42 161.5h282q-4 -44 25.5 -66t116.5 -22q125 0 141 75q5 28 -16.5 41t-83.5 23l-231 36q-196 29 -162 202q6 31 20.5 59.5
t46 60t75.5 54.5t115.5 38t161.5 15q202 0 299 -54.5t82 -176.5h-270q2 40 -28.5 61.5t-108.5 21.5q-123 0 -139 -70q-8 -35 44 -44q26 -5 303 -49q102 -19 146 -66t25 -137q-12 -58 -45.5 -102t-75 -69.5t-94 -42t-96 -22t-88.5 -6.5q-7 0 -19 -0.5t-18 -1.5l-21 -26
q27 3 41 3q94 -2 85 -80q-18 -95 -158 -95q-82 0 -141 23z" />
    <glyph glyph-name="scedilla" unicode="&#x15f;" horiz-adv-x="759" 
d="M213 -197l29 51q38 -14 77 -14q22 0 36.5 10t16.5 24q3 12 -7.5 18.5t-26.5 6.5q-11 0 -37 -7l-21 20l57 67q-37 2 -74 6q-100 11 -158 55t-43 129h246q-3 -32 20 -46q26 -17 91 -17q97 0 107 48q5 21 -9.5 29t-55.5 14l-184 23q-92 11 -130.5 47t-24.5 104
q21 105 114 149t255 44q49 0 89.5 -4t83.5 -15.5t71.5 -30.5t44.5 -52.5t11 -77.5h-238q4 32 -28 46q-25 12 -74 12q-97 0 -107 -51q-3 -14 10 -23.5t50 -14.5l179 -20q109 -12 153.5 -51t29.5 -116q-19 -96 -118 -143q-90 -41 -241 -45l-21 -26q27 3 41 3q94 -2 85 -80
q-18 -95 -158 -95q-82 0 -141 23z" />
    <glyph glyph-name="scedilla" unicode="&#xf6c2;" horiz-adv-x="759" 
d="M213 -197l29 51q38 -14 77 -14q22 0 36.5 10t16.5 24q3 12 -7.5 18.5t-26.5 6.5q-11 0 -37 -7l-21 20l57 67q-37 2 -74 6q-100 11 -158 55t-43 129h246q-3 -32 20 -46q26 -17 91 -17q97 0 107 48q5 21 -9.5 29t-55.5 14l-184 23q-92 11 -130.5 47t-24.5 104
q21 105 114 149t255 44q49 0 89.5 -4t83.5 -15.5t71.5 -30.5t44.5 -52.5t11 -77.5h-238q4 32 -28 46q-25 12 -74 12q-97 0 -107 -51q-3 -14 10 -23.5t50 -14.5l179 -20q109 -12 153.5 -51t29.5 -116q-19 -96 -118 -143q-90 -41 -241 -45l-21 -26q27 3 41 3q94 -2 85 -80
q-18 -95 -158 -95q-82 0 -141 23z" />
    <glyph glyph-name="Scaron" unicode="&#x160;" horiz-adv-x="889" 
d="M940 505h-270q2 40 -28.5 61.5t-108.5 21.5q-123 0 -139 -70q-8 -35 44 -44q26 -5 303 -49q102 -19 146 -66t25 -137q-52 -244 -463 -244q-98 0 -167 10t-123.5 36t-77.5 75t-13 121h282q-4 -44 25.5 -66t116.5 -22q125 0 141 75q5 28 -16.5 41t-83.5 23l-231 36
q-196 29 -162 202q6 31 20.5 59.5t46 60t75.5 54.5t115.5 38t161.5 15q202 0 299 -54.5t82 -176.5zM418 780l-119 140h233l55 -77l87 77h218l-178 -140h-296z" />
    <glyph glyph-name="scaron" unicode="&#x161;" horiz-adv-x="759" 
d="M62 169h246q-3 -32 20 -46q26 -17 91 -17q97 0 107 48q5 21 -9.5 29t-55.5 14l-184 23q-92 11 -130.5 47t-24.5 104q21 105 114 149t255 44q49 0 89.5 -4t83.5 -15.5t71.5 -30.5t44.5 -52.5t11 -77.5h-238q4 32 -28 46q-25 12 -74 12q-97 0 -107 -51q-3 -14 10 -23.5
t50 -14.5l179 -20q109 -12 153.5 -51t29.5 -116q-39 -188 -386 -188q-51 0 -94 4t-90 16.5t-78 32.5t-47.5 55.5t-8.5 82.5zM338 600l-119 140h233l55 -77l87 77h218l-178 -140h-296z" />
    <glyph glyph-name="Tcommaaccent" unicode="&#x162;" horiz-adv-x="760" 
d="M114 554l33 160h762l-33 -160h-262l-115 -554h-238l115 554h-262zM248 -158l22 108h208l-16 -76q-6 -30 -24 -54q-16 -24 -52 -40q-34 -15 -114 -15l9 45q55 5 66 32h-99z" />
    <glyph glyph-name="tcommaaccent" unicode="&#x163;" horiz-adv-x="500" 
d="M83 402l29 140h111l36 172h212l-36 -172h140l-29 -140h-140l-45 -218q-8 -35 3 -45.5t54 -10.5q18 0 76 2l-28 -132q-63 -10 -163 -10q-107 0 -144.5 32.5t-19.5 118.5l55 263h-111zM172 -158l22 108h208l-16 -76q-6 -30 -24 -54q-16 -24 -52 -40q-34 -15 -114 -15l9 45
q55 5 66 32h-99z" />
    <glyph glyph-name="Tcaron" unicode="&#x164;" horiz-adv-x="760" 
d="M114 554l33 160h762l-33 -160h-262l-115 -554h-238l115 554h-262zM379 780l-119 140h233l55 -77l87 77h218l-178 -140h-296z" />
    <glyph glyph-name="tcaron" unicode="&#x165;" horiz-adv-x="627" 
d="M550 570l64 160h199l-111 -160h-152zM83 402l29 140h111l36 172h212l-36 -172h140l-29 -140h-140l-45 -218q-8 -35 3 -45.5t54 -10.5q18 0 76 2l-28 -132q-63 -10 -163 -10q-107 0 -144.5 32.5t-19.5 118.5l55 263h-111z" />
    <glyph glyph-name="Tbar" unicode="&#x166;" horiz-adv-x="760" 
d="M165 345l21 91h165l25 118h-262l33 160h762l-33 -160h-262l-25 -118h162l-18 -91h-163l-71 -345h-238l71 345h-167z" />
    <glyph glyph-name="tbar" unicode="&#x167;" horiz-adv-x="500" 
d="M38 243l20 91h121l16 78h-111l28 130h111l36 172h212l-36 -172h140l-28 -130h-140l-16 -78h149l-19 -91h-148l-12 -59q-8 -35 3 -45.5t54 -10.5q18 0 76 2l-28 -132q-63 -10 -163 -10q-107 0 -144.5 32.5t-19.5 118.5l21 104h-122z" />
    <glyph glyph-name="Utilde" unicode="&#x168;" horiz-adv-x="926" 
d="M114 252l96 462h238l-88 -423q-17 -84 14.5 -118.5t116.5 -34.5t131.5 34.5t63.5 118.5l88 423h238l-96 -462q-56 -274 -458 -274q-197 0 -285 65t-59 209zM447 783h-95q64 145 191 145q29 0 69 -9l133 -29q18 -5 27 -5q10 0 17.5 2.5t14.5 10t9.5 10.5t9.5 12h93
q-22 -65 -64.5 -106.5t-107.5 -41.5q-45 0 -186 35q-55 12 -57 12q-37 0 -54 -36z" />
    <glyph glyph-name="utilde" unicode="&#x169;" horiz-adv-x="778" 
d="M96 197l72 345h212l-58 -280q-14 -67 7 -95.5t77 -28.5q60 0 102.5 33t56.5 97l57 274h212l-112 -542h-206l14 70h-2q-95 -92 -247 -92q-228 0 -185 219zM340 603h-95q64 145 191 145q29 0 69 -9l133 -29q18 -5 27 -5q10 0 17.5 2.5t14.5 10t9.5 10.5t9.5 12h93
q-22 -65 -64.5 -106.5t-107.5 -41.5q-45 0 -186 35q-55 12 -57 12q-37 0 -54 -36z" />
    <glyph glyph-name="Umacron" unicode="&#x16a;" horiz-adv-x="926" 
d="M114 252l96 462h238l-88 -423q-17 -84 14.5 -118.5t116.5 -34.5t131.5 34.5t63.5 118.5l88 423h238l-96 -462q-56 -274 -458 -274q-197 0 -285 65t-59 209zM361 792l25 116h526l-25 -116h-526z" />
    <glyph glyph-name="umacron" unicode="&#x16b;" horiz-adv-x="778" 
d="M96 197l72 345h212l-58 -280q-14 -67 7 -95.5t77 -28.5q60 0 102.5 33t56.5 97l57 274h212l-112 -542h-206l14 70h-2q-95 -92 -247 -92q-228 0 -185 219zM249 612l25 116h526l-25 -116h-526z" />
    <glyph glyph-name="Ubreve" unicode="&#x16c;" horiz-adv-x="926" 
d="M114 252l96 462h238l-88 -423q-17 -84 14.5 -118.5t116.5 -34.5t131.5 34.5t63.5 118.5l88 423h238l-96 -462q-56 -274 -458 -274q-197 0 -285 65t-59 209zM412 928h116q0 -28 25 -40t72 -12q98 0 119 52h116q-29 -83 -94 -121q-60 -35 -162 -35t-150 36t-42 120z" />
    <glyph glyph-name="ubreve" unicode="&#x16d;" horiz-adv-x="778" 
d="M96 197l72 345h212l-58 -280q-14 -67 7 -95.5t77 -28.5q60 0 102.5 33t56.5 97l57 274h212l-112 -542h-206l14 70h-2q-95 -92 -247 -92q-228 0 -185 219zM303 748h116q0 -28 25 -40q26 -12 72 -12q98 0 119 52h116q-29 -83 -94 -121q-60 -35 -162 -35t-150 36t-42 120z
" />
    <glyph glyph-name="Uring" unicode="&#x16e;" horiz-adv-x="926" 
d="M114 252l96 462h238l-88 -423q-17 -84 14.5 -118.5t116.5 -34.5t131.5 34.5t63.5 118.5l88 423h238l-96 -462q-56 -274 -458 -274q-197 0 -285 65t-59 209zM501 875q12 54 58.5 93t101.5 39q54 0 85 -39t19 -93q-12 -55 -58 -93.5t-101 -38.5q-54 0 -85.5 39t-19.5 93z
M575 875q-5 -24 8.5 -41t37.5 -17t44.5 17t25.5 41t-8.5 41t-37.5 17t-44.5 -17t-25.5 -41z" />
    <glyph glyph-name="uring" unicode="&#x16f;" horiz-adv-x="778" 
d="M96 197l72 345h212l-58 -280q-14 -67 7 -95.5t77 -28.5q60 0 102.5 33t56.5 97l57 274h212l-112 -542h-206l14 70h-2q-95 -92 -247 -92q-228 0 -185 219zM394 700q12 54 58.5 93t101.5 39q54 0 85 -39t19 -93q-12 -55 -58 -93.5t-101 -38.5q-54 0 -85.5 39t-19.5 93z
M468 700q-5 -24 8.5 -41t37.5 -17t44.5 17t25.5 41t-8.5 41t-37.5 17t-44.5 -17t-25.5 -41z" />
    <glyph glyph-name="Uhungarumlaut" unicode="&#x170;" horiz-adv-x="926" 
d="M114 252l96 462h238l-88 -423q-17 -84 14.5 -118.5t116.5 -34.5t131.5 34.5t63.5 118.5l88 423h238l-96 -462q-56 -274 -458 -274q-197 0 -285 65t-59 209zM362 780l119 140h258l-178 -140h-199zM666 780l120 140h258l-178 -140h-200z" />
    <glyph glyph-name="uhungarumlaut" unicode="&#x171;" horiz-adv-x="778" 
d="M96 197l72 345h212l-58 -280q-14 -67 7 -95.5t77 -28.5q60 0 102.5 33t56.5 97l57 274h212l-112 -542h-206l14 70h-2q-95 -92 -247 -92q-228 0 -185 219zM255 600l119 140h258l-178 -140h-199zM559 600l120 140h258l-178 -140h-200z" />
    <glyph glyph-name="Uogonek" unicode="&#x172;" horiz-adv-x="926" 
d="M114 252l96 462h238l-88 -423q-17 -84 14.5 -118.5t116.5 -34.5t131.5 34.5t63.5 118.5l88 423h238l-96 -462q-43 -212 -286 -259q-39 -7 -88 -12q-31 -23 -54 -46q-27 -26 -32 -50q-7 -39 35 -39q31 0 74 15l-7 -56q-62 -25 -136 -25q-67 0 -93.5 21t-17.5 61
q11 46 56 78q33 22 64 38q-78 1 -140 15q-220 47 -177 259z" />
    <glyph glyph-name="uogonek" unicode="&#x173;" horiz-adv-x="778" 
d="M96 197l72 345h212l-58 -280q-14 -67 7 -95.5t77 -28.5q60 0 102.5 33t56.5 97l57 274h212l-112 -542h-104q-58 -52 -73 -72q-17 -23 -20 -43q-5 -39 34 -39q31 0 70 15l-7 -56q-58 -25 -129 -25q-63 0 -88.5 21t-16.5 61q8 41 36 68q29 28 92 70l14 70h-2
q-95 -92 -247 -92q-228 0 -185 219z" />
    <glyph glyph-name="Wcircumflex" unicode="&#x174;" horiz-adv-x="1148" 
d="M214 0l-66 714h230l12 -482h2l229 482h202l29 -482h2l212 482h230l-362 -714h-235l-28 465h-2l-220 -465h-235zM446 780l177 140h296l120 -140h-234l-55 77l-87 -77h-217z" />
    <glyph glyph-name="wcircumflex" unicode="&#x175;" horiz-adv-x="1130" 
d="M198 0l-84 542h230l38 -356h2l197 356h192l49 -356h2l186 356h230l-308 -542h-252l-48 319h-2l-180 -319h-252zM393 600l177 140h296l120 -140h-234l-55 77l-87 -77h-217z" />
    <glyph glyph-name="Ycircumflex" unicode="&#x176;" 
d="M288 0l46 225l-215 489h276l97 -303l223 303h276l-419 -489l-46 -225h-238zM285 780l177 140h296l120 -140h-234l-55 77l-87 -77h-217z" />
    <glyph glyph-name="ycircumflex" unicode="&#x177;" horiz-adv-x="685" 
d="M24 -190l28 134h51q35 0 57.5 6.5t30.5 13.5t17 19l34 48l-149 511h230l70 -322l199 322h224l-415 -610q-31 -47 -55.5 -71t-67.5 -40.5t-106 -16.5q-68 0 -148 6zM178 600l177 140h296l120 -140h-234l-55 77l-87 -77h-217z" />
    <glyph glyph-name="Ydieresis" unicode="&#x178;" 
d="M288 0l46 225l-215 489h276l97 -303l223 303h276l-419 -489l-46 -225h-238zM306 786l27 128h212l-27 -128h-212zM612 786l27 128h212l-27 -128h-212z" />
    <glyph glyph-name="Zacute" unicode="&#x179;" 
d="M18 0l28 137l537 417h-419l33 160h738l-29 -140l-533 -414h440l-33 -160h-762zM474 780l120 140h258l-178 -140h-200z" />
    <glyph glyph-name="zacute" unicode="&#x17a;" horiz-adv-x="667" 
d="M22 0l26 128l381 264v2h-309l31 148h596l-26 -128l-372 -266h326l-30 -148h-623zM357 600l120 140h258l-178 -140h-200z" />
    <glyph glyph-name="Zdotaccent" unicode="&#x17b;" 
d="M18 0l28 137l537 417h-419l33 160h738l-29 -140l-533 -414h440l-33 -160h-762zM459 786l27 128h212l-27 -128h-212z" />
    <glyph glyph-name="zdotaccent" unicode="&#x17c;" horiz-adv-x="667" 
d="M22 0l26 128l381 264v2h-309l31 148h596l-26 -128l-372 -266h326l-30 -148h-623zM346 606l27 128h212l-27 -128h-212z" />
    <glyph glyph-name="Zcaron" unicode="&#x17d;" 
d="M18 0l28 137l537 417h-419l33 160h738l-29 -140l-533 -414h440l-33 -160h-762zM408 780l-119 140h233l55 -77l87 77h218l-178 -140h-296z" />
    <glyph glyph-name="zcaron" unicode="&#x17e;" horiz-adv-x="667" 
d="M22 0l26 128l381 264v2h-309l31 148h596l-26 -128l-372 -266h326l-30 -148h-623zM304 600l-119 140h233l55 -77l87 77h218l-178 -140h-296z" />
    <glyph glyph-name="florin" unicode="&#x192;" horiz-adv-x="888" 
d="M293 295l43 104h114l68 165q57 144 254 144q32 0 132 -7l-51 -130q-3 0 -23 1.5t-31 1.5q-33 0 -51 -14t-31 -42l-49 -119h112l-43 -104h-112l-144 -347q-34 -80 -97.5 -112t-159.5 -32q-44 0 -135 7l54 130q48 -3 49 -3q41 0 61.5 18.5t52.5 93.5l101 245h-114z" />
    <glyph glyph-name="Scommaaccent" unicode="&#x218;" horiz-adv-x="889" 
d="M940 505h-270q2 40 -28.5 61.5t-108.5 21.5q-123 0 -139 -70q-8 -35 44 -44q26 -5 303 -49q102 -19 146 -66t25 -137q-52 -244 -463 -244q-98 0 -167 10t-123.5 36t-77.5 75t-13 121h282q-4 -44 25.5 -66t116.5 -22q125 0 141 75q5 28 -16.5 41t-83.5 23l-231 36
q-196 29 -162 202q6 31 20.5 59.5t46 60t75.5 54.5t115.5 38t161.5 15q202 0 299 -54.5t82 -176.5zM334 -158l22 108h208l-16 -76q-6 -30 -24 -54q-16 -24 -52 -40q-34 -15 -114 -15l9 45q55 5 66 32h-99z" />
    <glyph glyph-name="scommaaccent" unicode="&#x219;" horiz-adv-x="759" 
d="M62 169h246q-3 -32 20 -46q26 -17 91 -17q97 0 107 48q5 21 -9.5 29t-55.5 14l-184 23q-92 11 -130.5 47t-24.5 104q21 105 114 149t255 44q49 0 89.5 -4t83.5 -15.5t71.5 -30.5t44.5 -52.5t11 -77.5h-238q4 32 -28 46q-25 12 -74 12q-97 0 -107 -51q-3 -14 10 -23.5
t50 -14.5l179 -20q109 -12 153.5 -51t29.5 -116q-39 -188 -386 -188q-51 0 -94 4t-90 16.5t-78 32.5t-47.5 55.5t-8.5 82.5zM270 -158l22 108h208l-16 -76q-6 -30 -24 -54q-16 -24 -52 -40q-34 -15 -114 -15l9 45q55 5 66 32h-99z" />
    <glyph glyph-name="uni021A" unicode="&#x21a;" horiz-adv-x="760" 
d="M114 554l33 160h762l-33 -160h-262l-115 -554h-238l115 554h-262zM248 -158l22 108h208l-16 -76q-6 -30 -24 -54q-16 -24 -52 -40q-34 -15 -114 -15l9 45q55 5 66 32h-99z" />
    <glyph glyph-name="uni021B" unicode="&#x21b;" horiz-adv-x="500" 
d="M83 402l29 140h111l36 172h212l-36 -172h140l-29 -140h-140l-45 -218q-8 -35 3 -45.5t54 -10.5q18 0 76 2l-28 -132q-63 -10 -163 -10q-107 0 -144.5 32.5t-19.5 118.5l55 263h-111zM172 -158l22 108h208l-16 -76q-6 -30 -24 -54q-16 -24 -52 -40q-34 -15 -114 -15l9 45
q55 5 66 32h-99z" />
    <glyph glyph-name="circumflex" unicode="&#x2c6;" horiz-adv-x="278" 
d="M-32 600l177 140h296l120 -140h-234l-55 77l-87 -77h-217z" />
    <glyph glyph-name="caron" unicode="&#x2c7;" horiz-adv-x="278" 
d="M116 600l-119 140h233l55 -77l87 77h218l-178 -140h-296z" />
    <glyph glyph-name="uni02C9" unicode="&#x2c9;" horiz-adv-x="278" 
d="M4 612l25 116h526l-25 -116h-526z" />
    <glyph glyph-name="breve" unicode="&#x2d8;" horiz-adv-x="278" 
d="M69 748h116q0 -28 25 -40q26 -12 72 -12q98 0 119 52h116q-29 -83 -94 -121q-60 -35 -162 -35t-150 36t-42 120z" />
    <glyph glyph-name="dotaccent" unicode="&#x2d9;" horiz-adv-x="278" 
d="M156 606l27 128h212l-27 -128h-212z" />
    <glyph glyph-name="ring" unicode="&#x2da;" horiz-adv-x="278" 
d="M156 700q12 54 58.5 93t101.5 39q54 0 85 -39t19 -93q-12 -55 -58 -93.5t-101 -38.5q-54 0 -85.5 39t-19.5 93zM230 700q-5 -24 8.5 -41t37.5 -17t44.5 17t25.5 41t-8.5 41t-37.5 17t-44.5 -17t-25.5 -41z" />
    <glyph glyph-name="ogonek" unicode="&#x2db;" horiz-adv-x="278" 
d="M213 0h90q-56 -42 -82 -67.5t-30 -47.5q-7 -39 35 -39q31 0 74 15l-7 -56q-62 -25 -136 -25q-67 0 -93.5 21t-17.5 61q16 74 167 138z" />
    <glyph glyph-name="tilde" unicode="&#x2dc;" horiz-adv-x="278" 
d="M91 603h-95q64 145 191 145q29 0 69 -9l133 -29q18 -5 27 -5q10 0 17.5 2.5t14.5 10t9.5 10.5t9.5 12h93q-22 -65 -64.5 -106.5t-107.5 -41.5q-45 0 -186 35q-55 12 -57 12q-37 0 -54 -36z" />
    <glyph glyph-name="hungarumlaut" unicode="&#x2dd;" horiz-adv-x="278" 
d="M-14 600l119 140h258l-178 -140h-199zM290 600l120 140h258l-178 -140h-200z" />
    <glyph glyph-name="uni0394" unicode="&#x394;" horiz-adv-x="722" 
d="M642 0h-698l400 712h177zM462 148l-59 392l-202 -392h261z" />
    <glyph glyph-name="uni03A9" unicode="&#x3a9;" horiz-adv-x="759" 
d="M723 462q0 -104 -64.5 -191t-164.5 -105l-5 -24h175l-30 -142h-305l47 223q77 13 121 72.5t44 140.5q0 63 -33.5 102t-96.5 39q-84 0 -141 -69t-57 -155q0 -108 94 -130l-48 -223h-299l30 142h169l6 24q-126 50 -126 191q0 156 114.5 260t274.5 104q124 0 209.5 -69
t85.5 -190z" />
    <glyph glyph-name="uni03BC" unicode="&#x3bc;" horiz-adv-x="778" 
d="M516 0l14 70h-2q-84 -92 -170 -92q-60 0 -86 36h-2l-43 -210h-212l153 738h212l-58 -280q-14 -67 7 -95.5t77 -28.5q60 0 102.5 33t56.5 97l57 274h212l-112 -542h-206z" />
    <glyph glyph-name="pi" unicode="&#x3c0;" horiz-adv-x="629" 
d="M637 496l-30 -141h-81q0 -2 -12.5 -52.5t-21.5 -95.5t-9 -63q0 -21 29 -21q23 0 48 11l-24 -113q-62 -30 -114 -30q-107 0 -107 76q0 30 9 71l47 217h-139l-76 -355h-155l76 355h-74l30 141h604z" />
    <glyph glyph-name="endash" unicode="&#x2013;" horiz-adv-x="500" 
d="M45 220l29 140h500l-29 -140h-500z" />
    <glyph glyph-name="emdash" unicode="&#x2014;" horiz-adv-x="1000" 
d="M45 220l29 140h1000l-29 -140h-1000z" />
    <glyph glyph-name="quoteleft" unicode="&#x2018;" horiz-adv-x="388" 
d="M148 320l26 127q52 245 280 267l-17 -82q-51 -9 -81 -41.5t-42 -72.5h99l-41 -198h-224z" />
    <glyph glyph-name="quoteright" unicode="&#x2019;" horiz-adv-x="388" 
d="M189 516l41 198h224l-26 -127q-52 -245 -280 -267l17 82q51 9 81 41.5t42 72.5h-99z" />
    <glyph glyph-name="quotesinglbase" unicode="&#x201a;" horiz-adv-x="388" 
d="M82 0l41 198h224l-27 -127q-50 -245 -279 -267l17 82q51 9 81 41.5t42 72.5h-99z" />
    <glyph glyph-name="quotedblleft" unicode="&#x201c;" horiz-adv-x="667" 
d="M132 320l26 127q52 245 280 267l-17 -82q-51 -9 -81 -41.5t-42 -72.5h99l-41 -198h-224zM443 320l26 127q52 245 280 267l-17 -82q-51 -9 -81 -41.5t-42 -72.5h99l-41 -198h-224z" />
    <glyph glyph-name="quotedblright" unicode="&#x201d;" horiz-adv-x="667" 
d="M484 516l41 198h224l-26 -127q-52 -245 -280 -267l17 82q51 9 81 41.5t42 72.5h-99zM173 516l41 198h224l-26 -127q-52 -245 -280 -267l17 82q51 9 81 41.5t42 72.5h-99z" />
    <glyph glyph-name="quotedblbase" unicode="&#x201e;" horiz-adv-x="667" 
d="M377 0l41 198h224l-27 -127q-50 -245 -279 -267l17 82q51 9 81 41.5t42 72.5h-99zM66 0l41 198h224l-27 -127q-50 -245 -279 -267l17 82q51 9 81 41.5t42 72.5h-99z" />
    <glyph glyph-name="dagger" unicode="&#x2020;" horiz-adv-x="888" 
d="M294 -196l114 548h-246l32 154h246l43 208h218l-43 -208h246l-32 -154h-246l-114 -548h-218z" />
    <glyph glyph-name="daggerdbl" unicode="&#x2021;" horiz-adv-x="888" 
d="M88 -3l29 140h249l51 244h-249l29 140h249l40 193h212l-40 -193h249l-29 -140h-249l-51 -244h249l-29 -140h-249l-40 -193h-212l40 193h-249z" />
    <glyph glyph-name="bullet" unicode="&#x2022;" horiz-adv-x="500" 
d="M146 357q14 74 77.5 126t136.5 52q74 0 115 -52t27 -127q-16 -73 -78.5 -125t-136.5 -52t-115.5 52t-25.5 126z" />
    <glyph glyph-name="ellipsis" unicode="&#x2026;" horiz-adv-x="1000" 
d="M55 0l41 198h224l-41 -198h-224zM388 0l41 198h224l-41 -198h-224zM721 0l41 198h224l-41 -198h-224z" />
    <glyph glyph-name="perthousand" unicode="&#x2030;" horiz-adv-x="1167" 
d="M232 530q-12 -47 -6 -75.5t37 -28.5q32 0 48.5 24.5t28.5 79.5q12 49 5 76.5t-39 27.5q-31 0 -47 -26t-27 -78zM106 -16l606 724h112l-606 -724h-112zM585 162q-12 -47 -5.5 -75.5t37.5 -28.5q32 0 48 24.5t28 79.5q13 49 6 76.5t-39 27.5q-31 0 -47.5 -26t-27.5 -78z
M116 530q15 77 68.5 127.5t138.5 50.5q169 0 133 -178q-38 -178 -207 -178q-85 0 -117.5 50.5t-15.5 127.5zM469 162q15 77 68.5 127.5t138.5 50.5q169 0 133 -178q-38 -178 -207 -178q-85 0 -117.5 50.5t-15.5 127.5zM854 162q15 77 68.5 127.5t138.5 50.5q169 0 133 -178
q-38 -178 -207 -178q-85 0 -117.5 50.5t-15.5 127.5zM970 162q-12 -47 -5.5 -75.5t37.5 -28.5q32 0 48 24.5t28 79.5q13 49 6 76.5t-39 27.5q-31 0 -47.5 -26t-27.5 -78z" />
    <glyph glyph-name="guilsinglleft" unicode="&#x2039;" horiz-adv-x="388" 
d="M125 202l37 176l238 152l-31 -148l-141 -92l103 -92l-31 -148z" />
    <glyph glyph-name="guilsinglright" unicode="&#x203a;" horiz-adv-x="388" 
d="M108 50l31 148l141 92l-103 92l31 148l174 -152l-37 -176z" />
    <glyph glyph-name="fraction" unicode="&#x2044;" horiz-adv-x="167" 
d="M-203 -16l605 724h112l-605 -724h-112z" />
    <glyph glyph-name="Euro" unicode="&#x20ac;" horiz-adv-x="888" 
d="M989 644l-117 -140q-26 24 -65 38q-48 18 -114 18q-79 0 -129 -27q-45 -25 -73 -68h355l-70 -86h-318q-11 -33 -11 -68h276l-70 -86h-203q6 -41 42 -66q38 -27 112 -27q86 0 162 33q60 27 109 73l-40 -190q-43 -22 -99 -39q-84 -25 -189 -25q-169 0 -254 71
q-76 58 -82 170h-135l70 86h69q2 34 13 68h-120l70 86h81q54 111 158 174q115 69 289 69q105 0 192 -23q51 -14 91 -41z" />
    <glyph glyph-name="afii61289" unicode="&#x2113;" horiz-adv-x="500" 
d="M513 586q0 -82 -61.5 -157.5t-202.5 -165.5q-25 -100 -25 -123q0 -41 40 -41q35 0 97 39h2l38 -90q-91 -62 -185 -62q-71 0 -109.5 34.5t-38.5 91.5q0 11 7 50l-58 -40h-2l-41 88l128 82l48 229q20 92 79.5 146t143.5 54q61 0 100.5 -39t39.5 -96zM384 579q0 17 -8 28.5
t-20 11.5q-30 0 -43 -59l-35 -162q47 39 76.5 87.5t29.5 93.5z" />
    <glyph glyph-name="trademark" unicode="&#x2122;" horiz-adv-x="1000" 
d="M176 302l64 308h-102l22 104h344l-22 -104h-102l-64 -308h-140zM892 302l54 258h-2l-143 -258h-88l-35 258h-2l-54 -258h-128l86 412h174l43 -219l135 219h174l-86 -412h-128z" />
    <glyph glyph-name="Omega" unicode="&#x2126;" horiz-adv-x="759" 
d="M723 462q0 -104 -64.5 -191t-164.5 -105l-5 -24h175l-30 -142h-305l47 223q77 13 121 72.5t44 140.5q0 63 -33.5 102t-96.5 39q-84 0 -141 -69t-57 -155q0 -108 94 -130l-48 -223h-299l30 142h169l6 24q-126 50 -126 191q0 156 114.5 260t274.5 104q124 0 209.5 -69
t85.5 -190z" />
    <glyph glyph-name="estimated" unicode="&#x212e;" horiz-adv-x="600" 
d="M561 259h-404v-181q59 -59 145 -59q122 0 193 120l35 -21q-46 -72 -98 -103.5t-130 -31.5q-115 0 -186.5 79t-71.5 197q0 119 71 197.5t187 78.5q115 0 186.5 -77t72.5 -199zM157 295h291v145q-63 60 -147 60t-144 -60v-145z" />
    <glyph glyph-name="partialdiff" unicode="&#x2202;" horiz-adv-x="593" 
d="M534 354q0 -71 -11.5 -131.5t-39 -117.5t-81.5 -90t-130 -33q-108 0 -174.5 64.5t-66.5 172.5q0 97 63.5 163.5t160.5 66.5q69 0 124 -41q0 33 -5.5 63t-17.5 60.5t-37 49t-60 18.5q-62 0 -120 -58l-84 94q91 83 200 83q76 0 132 -31t87 -84.5t45.5 -115t14.5 -133.5z
M377 270q0 4 -0.5 11t-0.5 10q-42 42 -94 42q-49 0 -75 -35.5t-26 -85.5q0 -46 24 -81t67 -35q29 0 50.5 17.5t33 45.5t16.5 56t5 55z" />
    <glyph glyph-name="Delta" unicode="&#x2206;" horiz-adv-x="722" 
d="M642 0h-698l400 712h177zM462 148l-59 392l-202 -392h261z" />
    <glyph glyph-name="product" unicode="&#x220f;" horiz-adv-x="759" 
d="M711 -214h-156v845h-350v-845h-157v1000h663v-1000z" />
    <glyph glyph-name="summation" unicode="&#x2211;" horiz-adv-x="704" 
d="M674 -214h-644v135l286 372l-275 356v137h621v-156h-413l251 -337l-266 -351h440v-156z" />
    <glyph glyph-name="minus" unicode="&#x2212;" horiz-adv-x="600" 
d="M85 183l29 140h506l-29 -140h-506z" />
    <glyph glyph-name="uni2215" unicode="&#x2215;" horiz-adv-x="167" 
d="M-203 -16l605 724h112l-605 -724h-112z" />
    <glyph glyph-name="uni2219" unicode="&#x2219;" horiz-adv-x="388" 
d="M129 260q10 49 51.5 84t91.5 35q49 0 77 -34.5t18 -84.5q-10 -49 -52 -84t-92 -35t-77 34.5t-17 84.5z" />
    <glyph glyph-name="radical" unicode="&#x221a;" horiz-adv-x="611" 
d="M596 786l-226 -1000h-141l-141 286l-58 -27l-57 122l198 91l104 -232l154 760h167z" />
    <glyph glyph-name="infinity" unicode="&#x221e;" horiz-adv-x="889" 
d="M825 276q0 -96 -54 -158.5t-149 -62.5q-61 0 -107 30.5t-89 87.5q-41 -56 -86 -86.5t-106 -30.5q-96 0 -152 61.5t-56 158.5q0 95 54 154.5t149 59.5q45 0 82 -18t60.5 -42t54.5 -66q44 63 87.5 94.5t109.5 31.5q95 0 148.5 -59.5t53.5 -154.5zM693 273q0 35 -20.5 57.5
t-54.5 22.5q-57 0 -113 -82q55 -78 115 -78q35 0 54 22.5t19 57.5zM346 271q-22 32 -53.5 57t-62.5 25q-33 0 -52.5 -23.5t-19.5 -57.5q0 -35 20 -56.5t54 -21.5q61 0 114 77z" />
    <glyph glyph-name="integral" unicode="&#x222b;" horiz-adv-x="667" 
d="M573 684q0 -32 -20 -52.5t-52 -20.5q-33 0 -49 17t-17 37.5t-5.5 37.5t-17.5 17q-20 0 -20 -40q0 -34 4 -101t4 -101l1 -302v-32q1 -45 0.5 -69t-4 -67.5t-10.5 -69t-21.5 -58.5t-35.5 -51t-53.5 -31t-74.5 -13q-52 0 -97 26.5t-45 75.5q0 32 19.5 52.5t51.5 20.5
t48.5 -17t18 -37t6.5 -37t17 -17q20 0 20 42q0 30 -4.5 87t-4.5 86v389v49t2 48.5t5.5 52.5t11.5 46t19 46t29 36t41 32q36 20 90 20q53 0 98 -26t45 -76z" />
    <glyph glyph-name="approxequal" unicode="&#x2248;" horiz-adv-x="593" 
d="M458 503h103q-3 -49 -19 -95.5t-53 -83.5t-87 -37q-35 0 -125 30t-129 30q-22 0 -35.5 -15.5t-15.5 -38.5h-102q0 47 17 95t54.5 84.5t86.5 36.5q39 0 128 -29.5t127 -29.5q45 0 50 53zM458 253h103q-3 -49 -17.5 -95t-50 -84t-85.5 -38q-41 0 -131 30t-128 30
q-45 0 -52 -52h-102q0 44 17.5 92t54.5 85t83 37q44 0 128.5 -29.5t128.5 -29.5q25 0 36 13.5t15 40.5z" />
    <glyph glyph-name="notequal" unicode="&#x2260;" horiz-adv-x="593" 
d="M550 72h-285l-80 -163l-138 68l47 95h-89v157h166l43 87h-209v158h287l79 161l138 -68l-47 -93h88v-158h-165l-43 -87h208v-157z" />
    <glyph glyph-name="lessequal" unicode="&#x2264;" horiz-adv-x="593" 
d="M550 128l-545 164v156l545 148v-160l-326 -66l326 -81v-161zM550 -53h-545v157h545v-157z" />
    <glyph glyph-name="greaterequal" unicode="&#x2265;" horiz-adv-x="593" 
d="M550 292l-545 -164v161l326 81l-326 66v160l545 -148v-156zM550 -53h-545v157h545v-157z" />
    <glyph glyph-name="lozenge" unicode="&#x25ca;" horiz-adv-x="593" 
d="M562 356l-196 -391h-142l-194 391l196 391h140zM400 356l-104 231l-105 -231l105 -231z" />
    <glyph glyph-name="commaaccent" unicode="&#xf004;" horiz-adv-x="388" 
d="M94 -158l22 108h208l-16 -76q-6 -30 -24 -54q-16 -24 -52 -40q-34 -15 -114 -15l9 45q55 5 66 32h-99z" />
    <glyph glyph-name="commaaccent" unicode="&#xf6c3;" horiz-adv-x="388" 
d="M94 -158l22 108h208l-16 -76q-6 -30 -24 -54q-16 -24 -52 -40q-34 -15 -114 -15l9 45q55 5 66 32h-99z" />
    <glyph glyph-name="dotlessj" unicode="&#xf6be;" horiz-adv-x="352" 
d="M-67 -193l31 145h25q54 0 69.5 12t25.5 58l108 520h212l-111 -535q-24 -118 -76 -160.5t-179 -42.5q-21 0 -105 3z" />
    <glyph glyph-name="dotlessj" unicode="&#xfb0f;" horiz-adv-x="352" 
d="M-67 -193l31 145h25q54 0 69.5 12t25.5 58l108 520h212l-111 -535q-24 -118 -76 -160.5t-179 -42.5q-21 0 -105 3z" />
    <glyph glyph-name="uniF8FF" unicode="&#xf8ff;" horiz-adv-x="512" 
d="M222 117h56v67h-56v-67zM225 234h46q0 52 6 72q6 19 43 52q37 34 50 60t13 60q0 59 -35 95t-89 36q-56 0 -92 -34t-43 -103l50 -8q11 95 82 95q31 0 53.5 -24.5t22.5 -60.5q0 -20 -9.5 -37t-40.5 -46q-31 -31 -46 -59q-13 -25 -13 -81zM462 50h-412v617h412v-617z
M512 718h-512v-718h512v718z" />
    <glyph glyph-name="commaaccent.alt" horiz-adv-x="388" 
d="M449 730l-22 -108h-208l16 76q6 29 23 54q17 24 53 40q35 15 114 15l-9 -45q-32 -3 -46 -10t-20 -22h99z" />
    <glyph glyph-name="caron.alt" horiz-adv-x="278" 
d="M167 570l64 160h199l-111 -160h-152z" />
    <glyph glyph-name="grave.cap" horiz-adv-x="278" 
d="M190 600l-120 140h258l62 -140h-200z" />
    <glyph glyph-name="acute.cap" horiz-adv-x="278" 
d="M138 600l120 140h258l-178 -140h-200z" />
    <glyph glyph-name="circumflex.cap" horiz-adv-x="278" 
d="M-32 600l177 140h296l120 -140h-234l-55 77l-87 -77h-217z" />
    <glyph glyph-name="caron.cap" horiz-adv-x="278" 
d="M116 600l-119 140h233l55 -77l87 77h218l-178 -140h-296z" />
    <glyph glyph-name="tilde.cap" horiz-adv-x="278" 
d="M91 603h-95q64 145 191 145q29 0 69 -9l133 -29q18 -5 27 -5q10 0 17.5 2.5t14.5 10t9.5 10.5t9.5 12h93q-22 -65 -64.5 -106.5t-107.5 -41.5q-45 0 -186 35q-55 12 -57 12q-37 0 -54 -36z" />
    <glyph glyph-name="dieresis.cap" horiz-adv-x="278" 
d="M3 606l27 128h212l-27 -128h-212zM309 606l27 128h212l-27 -128h-212z" />
    <glyph glyph-name="macron.cap" horiz-adv-x="278" 
d="M4 612l25 116h526l-25 -116h-526z" />
    <glyph glyph-name="breve.cap" horiz-adv-x="278" 
d="M69 748h116q0 -28 25 -40q26 -12 72 -12q98 0 119 52h116q-29 -83 -94 -121q-60 -35 -162 -35t-150 36t-42 120z" />
    <glyph glyph-name="ring.cap" horiz-adv-x="278" 
d="M156 700q12 54 58.5 93t101.5 39q54 0 85 -39t19 -93q-12 -55 -58 -93.5t-101 -38.5q-54 0 -85.5 39t-19.5 93zM230 700q-5 -24 8.5 -41t37.5 -17t44.5 17t25.5 41t-8.5 41t-37.5 17t-44.5 -17t-25.5 -41z" />
    <glyph glyph-name="hungarumlaut.cap" horiz-adv-x="278" 
d="M-14 600l119 140h258l-178 -140h-199zM290 600l120 140h258l-178 -140h-200z" />
    <glyph glyph-name="dotaccent.cap" horiz-adv-x="278" 
d="M156 606l27 128h212l-27 -128h-212z" />
    </font>
</defs>
</svg>
